  0
SECTION
  2
HEADER
  9
$ACADVER
  1
AC1021
  9
$ACADMAINTVER
 70
    25
  9
$DWGCODEPAGE
  3
ANSI_1252
  9
$INSBASE
 10
0.0
 20
0.0
 30
0.0
  9
$EXTMIN
 10
-15.95381
 20
-19.55381
 30
0.0
  9
$EXTMAX
 10
-5.04619
 20
-10.14619
 30
0.0
  9
$LIMMIN
 10
0.0
 20
0.0
  9
$LIMMAX
 10
12.0
 20
9.0
  9
$ORTHOMODE
 70
     0
  9
$REGENMODE
 70
     1
  9
$FILLMODE
 70
     1
  9
$QTEXTMODE
 70
     0
  9
$MIRRTEXT
 70
     1
  9
$LTSCALE
 40
1.0
  9
$ATTMODE
 70
     1
  9
$TEXTSIZE
 40
0.2
  9
$TRACEWID
 40
0.05
  9
$TEXTSTYLE
  7
Standard
  9
$CLAYER
  8
0
  9
$CELTYPE
  6
ByLayer
  9
$CECOLOR
 62
   256
  9
$CELTSCALE
 40
1.0
  9
$DISPSILH
 70
     0
  9
$DIMSCALE
 40
1.0
  9
$DIMASZ
 40
0.18
  9
$DIMEXO
 40
0.0625
  9
$DIMDLI
 40
0.38
  9
$DIMRND
 40
0.0
  9
$DIMDLE
 40
0.0
  9
$DIMEXE
 40
0.18
  9
$DIMTP
 40
0.0
  9
$DIMTM
 40
0.0
  9
$DIMTXT
 40
0.18
  9
$DIMCEN
 40
0.09
  9
$DIMTSZ
 40
0.0
  9
$DIMTOL
 70
     0
  9
$DIMLIM
 70
     0
  9
$DIMTIH
 70
     1
  9
$DIMTOH
 70
     1
  9
$DIMSE1
 70
     0
  9
$DIMSE2
 70
     0
  9
$DIMTAD
 70
     0
  9
$DIMZIN
 70
     0
  9
$DIMBLK
  1

  9
$DIMASO
 70
     1
  9
$DIMSHO
 70
     1
  9
$DIMPOST
  1

  9
$DIMAPOST
  1

  9
$DIMALT
 70
     0
  9
$DIMALTD
 70
     2
  9
$DIMALTF
 40
25.4
  9
$DIMLFAC
 40
1.0
  9
$DIMTOFL
 70
     0
  9
$DIMTVP
 40
0.0
  9
$DIMTIX
 70
     0
  9
$DIMSOXD
 70
     0
  9
$DIMSAH
 70
     0
  9
$DIMBLK1
  1

  9
$DIMBLK2
  1

  9
$DIMSTYLE
  2
Standard
  9
$DIMCLRD
 70
     0
  9
$DIMCLRE
 70
     0
  9
$DIMCLRT
 70
     0
  9
$DIMTFAC
 40
1.0
  9
$DIMGAP
 40
0.09
  9
$DIMJUST
 70
     0
  9
$DIMSD1
 70
     0
  9
$DIMSD2
 70
     0
  9
$DIMTOLJ
 70
     1
  9
$DIMTZIN
 70
     0
  9
$DIMALTZ
 70
     0
  9
$DIMALTTZ
 70
     0
  9
$DIMUPT
 70
     0
  9
$DIMDEC
 70
     4
  9
$DIMTDEC
 70
     4
  9
$DIMALTU
 70
     2
  9
$DIMALTTD
 70
     2
  9
$DIMTXSTY
  7
Standard
  9
$DIMAUNIT
 70
     0
  9
$DIMADEC
 70
     0
  9
$DIMALTRND
 40
0.0
  9
$DIMAZIN
 70
     0
  9
$DIMDSEP
 70
    46
  9
$DIMATFIT
 70
     3
  9
$DIMFRAC
 70
     0
  9
$DIMLDRBLK
  1

  9
$DIMLUNIT
 70
     2
  9
$DIMLWD
 70
    -2
  9
$DIMLWE
 70
    -2
  9
$DIMTMOVE
 70
     0
  9
$DIMFXL
 40
1.0
  9
$DIMFXLON
 70
     0
  9
$DIMJOGANG
 40
0.7853981633974483
  9
$DIMTFILL
 70
     0
  9
$DIMTFILLCLR
 70
     0
  9
$DIMARCSYM
 70
     0
  9
$DIMLTYPE
  6

  9
$DIMLTEX1
  6

  9
$DIMLTEX2
  6

  9
$LUNITS
 70
     2
  9
$LUPREC
 70
     4
  9
$SKETCHINC
 40
0.1
  9
$FILLETRAD
 40
0.5
  9
$AUNITS
 70
     0
  9
$AUPREC
 70
     0
  9
$MENU
  1
.
  9
$ELEVATION
 40
0.0
  9
$PELEVATION
 40
0.0
  9
$THICKNESS
 40
0.0
  9
$LIMCHECK
 70
     0
  9
$CHAMFERA
 40
0.5
  9
$CHAMFERB
 40
0.5
  9
$CHAMFERC
 40
1.0
  9
$CHAMFERD
 40
0.0
  9
$SKPOLY
 70
     0
  9
$TDCREATE
 40
2455727.950771239
  9
$TDUCREATE
 40
2455727.909104572
  9
$TDUPDATE
 40
2455727.95077125
  9
$TDUUPDATE
 40
2455727.909104583
  9
$TDINDWG
 40
0.0000000116
  9
$TDUSRTIMER
 40
0.0000000116
  9
$USRTIMER
 70
     1
  9
$ANGBASE
 50
0.0
  9
$ANGDIR
 70
     0
  9
$PDMODE
 70
     0
  9
$PDSIZE
 40
0.0
  9
$PLINEWID
 40
0.0
  9
$SPLFRAME
 70
     0
  9
$SPLINETYPE
 70
     6
  9
$SPLINESEGS
 70
     8
  9
$HANDSEED
  5
8D
  9
$SURFTAB1
 70
     6
  9
$SURFTAB2
 70
     6
  9
$SURFTYPE
 70
     6
  9
$SURFU
 70
     6
  9
$SURFV
 70
     6
  9
$UCSBASE
  2

  9
$UCSNAME
  2

  9
$UCSORG
 10
0.0
 20
0.0
 30
0.0
  9
$UCSXDIR
 10
1.0
 20
0.0
 30
0.0
  9
$UCSYDIR
 10
0.0
 20
1.0
 30
0.0
  9
$UCSORTHOREF
  2

  9
$UCSORTHOVIEW
 70
     0
  9
$UCSORGTOP
 10
0.0
 20
0.0
 30
0.0
  9
$UCSORGBOTTOM
 10
0.0
 20
0.0
 30
0.0
  9
$UCSORGLEFT
 10
0.0
 20
0.0
 30
0.0
  9
$UCSORGRIGHT
 10
0.0
 20
0.0
 30
0.0
  9
$UCSORGFRONT
 10
0.0
 20
0.0
 30
0.0
  9
$UCSORGBACK
 10
0.0
 20
0.0
 30
0.0
  9
$PUCSBASE
  2

  9
$PUCSNAME
  2

  9
$PUCSORG
 10
0.0
 20
0.0
 30
0.0
  9
$PUCSXDIR
 10
1.0
 20
0.0
 30
0.0
  9
$PUCSYDIR
 10
0.0
 20
1.0
 30
0.0
  9
$PUCSORTHOREF
  2

  9
$PUCSORTHOVIEW
 70
     0
  9
$PUCSORGTOP
 10
0.0
 20
0.0
 30
0.0
  9
$PUCSORGBOTTOM
 10
0.0
 20
0.0
 30
0.0
  9
$PUCSORGLEFT
 10
0.0
 20
0.0
 30
0.0
  9
$PUCSORGRIGHT
 10
0.0
 20
0.0
 30
0.0
  9
$PUCSORGFRONT
 10
0.0
 20
0.0
 30
0.0
  9
$PUCSORGBACK
 10
0.0
 20
0.0
 30
0.0
  9
$USERI1
 70
     0
  9
$USERI2
 70
     0
  9
$USERI3
 70
     0
  9
$USERI4
 70
     0
  9
$USERI5
 70
     0
  9
$USERR1
 40
0.0
  9
$USERR2
 40
0.0
  9
$USERR3
 40
0.0
  9
$USERR4
 40
0.0
  9
$USERR5
 40
0.0
  9
$WORLDVIEW
 70
     1
  9
$SHADEDGE
 70
     3
  9
$SHADEDIF
 70
    70
  9
$TILEMODE
 70
     1
  9
$MAXACTVP
 70
    64
  9
$PINSBASE
 10
0.0
 20
0.0
 30
0.0
  9
$PLIMCHECK
 70
     0
  9
$PEXTMIN
 10
1.000000000000000E+20
 20
1.000000000000000E+20
 30
1.000000000000000E+20
  9
$PEXTMAX
 10
-1.000000000000000E+20
 20
-1.000000000000000E+20
 30
-1.000000000000000E+20
  9
$PLIMMIN
 10
0.0
 20
0.0
  9
$PLIMMAX
 10
12.0
 20
9.0
  9
$UNITMODE
 70
     0
  9
$VISRETAIN
 70
     1
  9
$PLINEGEN
 70
     0
  9
$PSLTSCALE
 70
     1
  9
$TREEDEPTH
 70
  3020
  9
$CMLSTYLE
  2
Standard
  9
$CMLJUST
 70
     0
  9
$CMLSCALE
 40
1.0
  9
$PROXYGRAPHICS
 70
     1
  9
$MEASUREMENT
 70
     0
  9
$CELWEIGHT
370
    -1
  9
$ENDCAPS
280
     0
  9
$JOINSTYLE
280
     0
  9
$LWDISPLAY
290
     0
  9
$INSUNITS
 70
     5
  9
$HYPERLINKBASE
  1

  9
$STYLESHEET
  1

  9
$XEDIT
290
     1
  9
$CEPSNTYPE
380
     0
  9
$PSTYLEMODE
290
     1
  9
$FINGERPRINTGUID
  2
{35D0E364-B0D3-4AD5-BC3C-4B053E02F180}
  9
$VERSIONGUID
  2
{FAEB1C32-E019-11D5-929B-00C0DF256EC4}
  9
$EXTNAMES
290
     1
  9
$PSVPSCALE
 40
0.0
  9
$OLESTARTUP
290
     0
  9
$SORTENTS
280
   127
  9
$INDEXCTL
280
     0
  9
$HIDETEXT
280
     1
  9
$XCLIPFRAME
290
     0
  9
$HALOGAP
280
     0
  9
$OBSCOLOR
 70
   257
  9
$OBSLTYPE
280
     0
  9
$INTERSECTIONDISPLAY
280
     0
  9
$INTERSECTIONCOLOR
 70
   257
  9
$DIMASSOC
280
     2
  9
$PROJECTNAME
  1

  9
$CAMERADISPLAY
290
     0
  9
$LENSLENGTH
 40
50.0
  9
$CAMERAHEIGHT
 40
0.0
  9
$STEPSPERSEC
 40
2.0
  9
$STEPSIZE
 40
6.0
  9
$3DDWFPREC
 40
2.0
  9
$PSOLWIDTH
 40
0.25
  9
$PSOLHEIGHT
 40
4.0
  9
$LOFTANG1
 40
1.570796326794897
  9
$LOFTANG2
 40
1.570796326794897
  9
$LOFTMAG1
 40
0.0
  9
$LOFTMAG2
 40
0.0
  9
$LOFTPARAM
 70
     7
  9
$LOFTNORMALS
280
     1
  9
$LATITUDE
 40
37.795
  9
$LONGITUDE
 40
-122.394
  9
$NORTHDIRECTION
 40
0.0
  9
$TIMEZONE
 70
 -8000
  9
$LIGHTGLYPHDISPLAY
280
     1
  9
$TILEMODELIGHTSYNCH
280
     1
  9
$SOLIDHIST
280
     1
  9
$SHOWHIST
280
     1
  9
$DWFFRAME
280
     2
  9
$DGNFRAME
280
     2
  9
$REALWORLDSCALE
290
     1
  9
$INTERFERECOLOR
 62
   256
  9
$CSHADOW
280
     0
  9
$SHADOWPLANELOCATION
 40
0.0
  0
ENDSEC
  0
SECTION
  2
CLASSES
  0
CLASS
  1
ACDBDICTIONARYWDFLT
  2
AcDbDictionaryWithDefault
  3
ObjectDBX Classes
 90
        0
 91
        3
280
     0
281
     0
  0
CLASS
  1
VISUALSTYLE
  2
AcDbVisualStyle
  3
ObjectDBX Classes
 90
     4095
 91
        3
280
     0
281
     0
  0
CLASS
  1
SCALE
  2
AcDbScale
  3
ObjectDBX Classes
 90
     1153
 91
        3
280
     0
281
     0
  0
ENDSEC
  0
SECTION
  2
TABLES
  0
TABLE
  2
VPORT
  5
8
330
0
100
AcDbSymbolTable
 70
     1
  0
VPORT
  5
29
330
8
100
AcDbSymbolTableRecord
100
AcDbViewportTableRecord
  2
*Active
 70
     0
 10
0.0
 20
0.0
 11
1.0
 21
1.0
 12
10.42990654205607
 22
4.5
 13
0.0
 23
0.0
 14
0.5
 24
0.5
 15
0.5
 25
0.5
 16
0.0
 26
0.0
 36
1.0
 17
0.0
 27
0.0
 37
0.0
 40
9.0
 41
1.972972972850329
 42
50.0
 43
0.0
 44
0.0
 50
0.0
 51
0.0
 71
     0
 72
   100
 73
     1
 74
     3
 75
     0
 76
     0
 77
     0
 78
     0
281
     0
 65
     1
110
0.0
120
0.0
130
0.0
111
1.0
121
0.0
131
0.0
112
0.0
122
1.0
132
0.0
 79
     0
146
0.0
 60
     3
 61
     5
292
     1
282
     1
141
0.0
142
0.0
 63
   256
  0
ENDTAB
  0
TABLE
  2
LTYPE
  5
5
330
0
100
AcDbSymbolTable
 70
     1
  0
LTYPE
  5
14
330
5
100
AcDbSymbolTableRecord
100
AcDbLinetypeTableRecord
  2
ByBlock
 70
     0
  3

 72
    65
 73
     0
 40
0.0
  0
LTYPE
  5
15
330
5
100
AcDbSymbolTableRecord
100
AcDbLinetypeTableRecord
  2
ByLayer
 70
     0
  3

 72
    65
 73
     0
 40
0.0
  0
LTYPE
  5
16
330
5
100
AcDbSymbolTableRecord
100
AcDbLinetypeTableRecord
  2
Continuous
 70
     0
  3
Solid line
 72
    65
 73
     0
 40
0.0
  0
ENDTAB
  0
TABLE
  2
LAYER
  5
2
330
0
100
AcDbSymbolTable
 70
     2
  0
LAYER
  5
10
330
2
100
AcDbSymbolTableRecord
100
AcDbLayerTableRecord
  2
0
 70
     0
 62
     7
  6
Continuous
370
    -3
390
F
347
0
  0
LAYER
  5
5E
330
2
100
AcDbSymbolTableRecord
100
AcDbLayerTableRecord
  2
Layer 1
 70
     0
 62
     7
  6
Continuous
370
    -3
390
F
347
0
  0
ENDTAB
  0
TABLE
  2
STYLE
  5
3
330
0
100
AcDbSymbolTable
 70
     1
  0
STYLE
  5
11
330
3
100
AcDbSymbolTableRecord
100
AcDbTextStyleTableRecord
  2
Standard
 70
     0
 40
0.0
 41
1.0
 50
0.0
 71
     0
 42
0.2
  3
txt
  4

  0
ENDTAB
  0
TABLE
  2
VIEW
  5
6
330
0
100
AcDbSymbolTable
 70
     0
  0
ENDTAB
  0
TABLE
  2
UCS
  5
7
330
0
100
AcDbSymbolTable
 70
     0
  0
ENDTAB
  0
TABLE
  2
APPID
  5
9
330
0
100
AcDbSymbolTable
 70
     2
  0
APPID
  5
12
330
9
100
AcDbSymbolTableRecord
100
AcDbRegAppTableRecord
  2
ACAD
 70
     0
  0
APPID
  5
5D
330
9
100
AcDbSymbolTableRecord
100
AcDbRegAppTableRecord
  2
ODA
 70
     0
  0
ENDTAB
  0
TABLE
  2
DIMSTYLE
  5
A
330
0
100
AcDbSymbolTable
 70
     1
100
AcDbDimStyleTable
  0
DIMSTYLE
105
27
330
A
100
AcDbSymbolTableRecord
100
AcDbDimStyleTableRecord
  2
Standard
 70
     0
340
11
  0
ENDTAB
  0
TABLE
  2
BLOCK_RECORD
  5
1
330
0
100
AcDbSymbolTable
 70
     1
  0
BLOCK_RECORD
  5
1F
330
1
100
AcDbSymbolTableRecord
100
AcDbBlockTableRecord
  2
*Model_Space
340
22
 70
     0
280
     1
281
     0
  0
BLOCK_RECORD
  5
1B
330
1
100
AcDbSymbolTableRecord
100
AcDbBlockTableRecord
  2
*Paper_Space
340
1E
 70
     0
280
     1
281
     0
  0
BLOCK_RECORD
  5
23
330
1
100
AcDbSymbolTableRecord
100
AcDbBlockTableRecord
  2
*Paper_Space0
340
26
 70
     0
280
     1
281
     0
  0
ENDTAB
  0
ENDSEC
  0
SECTION
  2
BLOCKS
  0
BLOCK
  5
20
330
1F
100
AcDbEntity
  8
0
100
AcDbBlockBegin
  2
*Model_Space
 70
     0
 10
0.0
 20
0.0
 30
0.0
  3
*Model_Space
  1

  0
ENDBLK
  5
21
330
1F
100
AcDbEntity
  8
0
100
AcDbBlockEnd
  0
BLOCK
  5
1C
330
1B
100
AcDbEntity
 67
     1
  8
0
100
AcDbBlockBegin
  2
*Paper_Space
 70
     0
 10
0.0
 20
0.0
 30
0.0
  3
*Paper_Space
  1

  0
ENDBLK
  5
1D
330
1B
100
AcDbEntity
 67
     1
  8
0
100
AcDbBlockEnd
  0
BLOCK
  5
24
330
23
100
AcDbEntity
  8
0
100
AcDbBlockBegin
  2
*Paper_Space0
 70
     0
 10
0.0
 20
0.0
 30
0.0
  3
*Paper_Space0
  1

  0
ENDBLK
  5
25
330
23
100
AcDbEntity
  8
0
100
AcDbBlockEnd
  0
ENDSEC
  0
SECTION
  2
ENTITIES
  0
SPLINE
  5
5F
330
1F
100
AcDbEntity
  8
Layer 1
370
     9
100
AcDbSpline
210
0.0
220
0.0
230
1.0
 70
    11
 71
     3
 72
    56
 73
    52
 74
     0
 42
0.0000000001
 43
0.0000000001
 40
0.0
 40
0.0
 40
0.0
 40
0.0
 40
0.0769230769230769
 40
0.0769230769230769
 40
0.0769230769230769
 40
0.0769230769230769
 40
0.1538461538461539
 40
0.1538461538461539
 40
0.1538461538461539
 40
0.1538461538461539
 40
0.2307692307692308
 40
0.2307692307692308
 40
0.2307692307692308
 40
0.2307692307692308
 40
0.3076923076923077
 40
0.3076923076923077
 40
0.3076923076923077
 40
0.3076923076923077
 40
0.3846153846153846
 40
0.3846153846153846
 40
0.3846153846153846
 40
0.3846153846153846
 40
0.4615384615384616
 40
0.4615384615384616
 40
0.4615384615384616
 40
0.4615384615384616
 40
0.5384615384615385
 40
0.5384615384615385
 40
0.5384615384615385
 40
0.5384615384615385
 40
0.6153846153846154
 40
0.6153846153846154
 40
0.6153846153846154
 40
0.6153846153846154
 40
0.6923076923076923
 40
0.6923076923076923
 40
0.6923076923076923
 40
0.6923076923076923
 40
0.7692307692307692
 40
0.7692307692307692
 40
0.7692307692307692
 40
0.7692307692307692
 40
0.846153846153846
 40
0.846153846153846
 40
0.846153846153846
 40
0.846153846153846
 40
0.9230769230769229
 40
0.9230769230769229
 40
0.9230769230769229
 40
0.9230769230769229
 40
1.0
 40
1.0
 40
1.0
 40
1.0
 10
-15.95
 20
-19.05
 30
0.0
 10
-15.95
 20
-19.32539
 30
0.0
 10
-15.72539
 20
-19.55
 30
0.0
 10
-15.45
 20
-19.55
 30
0.0
 10
-15.45
 20
-19.55
 30
0.0
 10
-15.45
 20
-19.55
 30
0.0
 10
-5.55
 20
-19.55
 30
0.0
 10
-5.55
 20
-19.55
 30
0.0
 10
-5.55
 20
-19.55
 30
0.0
 10
-5.27461
 20
-19.55
 30
0.0
 10
-5.05
 20
-19.32539
 30
0.0
 10
-5.05
 20
-19.05
 30
0.0
 10
-5.05
 20
-19.05
 30
0.0
 10
-5.05
 20
-19.05
 30
0.0
 10
-5.05
 20
-17.6615
 30
0.0
 10
-5.05
 20
-17.6615
 30
0.0
 10
-5.05
 20
-17.6615
 30
0.0
 10
-5.05
 20
-17.6615
 30
0.0
 10
-5.308
 20
-17.6615
 30
0.0
 10
-5.308
 20
-17.6615
 30
0.0
 10
-5.308
 20
-17.6615
 30
0.0
 10
-5.39083
 20
-17.6615
 30
0.0
 10
-5.458
 20
-17.59433
 30
0.0
 10
-5.458
 20
-17.5115
 30
0.0
 10
-5.458
 20
-17.5115
 30
0.0
 10
-5.458
 20
-17.42867
 30
0.0
 10
-5.39083
 20
-17.3615
 30
0.0
 10
-5.308
 20
-17.3615
 30
0.0
 10
-5.308
 20
-17.3615
 30
0.0
 10
-5.308
 20
-17.3615
 30
0.0
 10
-5.05
 20
-17.3615
 30
0.0
 10
-5.05
 20
-17.3615
 30
0.0
 10
-5.05
 20
-17.3615
 30
0.0
 10
-5.05
 20
-17.3615
 30
0.0
 10
-5.05
 20
-10.65
 30
0.0
 10
-5.05
 20
-10.65
 30
0.0
 10
-5.05
 20
-10.65
 30
0.0
 10
-5.05
 20
-10.37461
 30
0.0
 10
-5.27461
 20
-10.15
 30
0.0
 10
-5.55
 20
-10.15
 30
0.0
 10
-5.55
 20
-10.15
 30
0.0
 10
-5.55
 20
-10.15
 30
0.0
 10
-15.45
 20
-10.15
 30
0.0
 10
-15.45
 20
-10.15
 30
0.0
 10
-15.45
 20
-10.15
 30
0.0
 10
-15.72539
 20
-10.15
 30
0.0
 10
-15.95
 20
-10.37461
 30
0.0
 10
-15.95
 20
-10.65
 30
0.0
 10
-15.95
 20
-10.65
 30
0.0
 10
-15.95
 20
-10.65
 30
0.0
 10
-15.95
 20
-19.05
 30
0.0
 10
-15.95
 20
-19.05
 30
0.0
  0
SPLINE
  5
60
330
1F
100
AcDbEntity
  8
Layer 1
 62
    30
370
     9
100
AcDbSpline
210
0.0
220
0.0
230
1.0
 70
    11
 71
     3
 72
    20
 73
    16
 74
     0
 42
0.0000000001
 43
0.0000000001
 40
0.0
 40
0.0
 40
0.0
 40
0.0
 40
0.25
 40
0.25
 40
0.25
 40
0.25
 40
0.5
 40
0.5
 40
0.5
 40
0.5
 40
0.75
 40
0.75
 40
0.75
 40
0.75
 40
1.0
 40
1.0
 40
1.0
 40
1.0
 10
-15.89488
 20
-19.266
 30
0.0
 10
-15.89488
 20
-19.266
 30
0.0
 10
-10.54934
 20
-19.266
 30
0.0
 10
-10.54934
 20
-19.266
 30
0.0
 10
-10.54934
 20
-19.266
 30
0.0
 10
-10.54934
 20
-19.266
 30
0.0
 10
-10.54934
 20
-10.884
 30
0.0
 10
-10.54934
 20
-10.884
 30
0.0
 10
-10.54934
 20
-10.884
 30
0.0
 10
-10.54934
 20
-10.884
 30
0.0
 10
-15.89488
 20
-10.884
 30
0.0
 10
-15.89488
 20
-10.884
 30
0.0
 10
-15.89488
 20
-10.884
 30
0.0
 10
-15.89488
 20
-10.884
 30
0.0
 10
-15.89488
 20
-19.266
 30
0.0
 10
-15.89488
 20
-19.266
 30
0.0
  0
SPLINE
  5
61
330
1F
100
AcDbEntity
  8
Layer 1
 62
    30
370
     9
100
AcDbSpline
210
0.0
220
0.0
230
1.0
 70
    24
 71
     3
 72
     8
 73
     4
 74
     0
 42
0.0000000001
 43
0.0000000001
 40
0.0
 40
0.0
 40
0.0
 40
0.0
 40
1.0
 40
1.0
 40
1.0
 40
1.0
 10
-14.99002
 20
-10.884
 30
0.0
 10
-14.99002
 20
-10.884
 30
0.0
 10
-14.99002
 20
-19.266
 30
0.0
 10
-14.99002
 20
-19.266
 30
0.0
  0
SPLINE
  5
62
330
1F
100
AcDbEntity
  8
Layer 1
 62
    30
370
     9
100
AcDbSpline
210
0.0
220
0.0
230
1.0
 70
    24
 71
     3
 72
     8
 73
     4
 74
     0
 42
0.0000000001
 43
0.0000000001
 40
0.0
 40
0.0
 40
0.0
 40
0.0
 40
1.0
 40
1.0
 40
1.0
 40
1.0
 10
-11.45434
 20
-10.884
 30
0.0
 10
-11.45434
 20
-10.884
 30
0.0
 10
-11.45434
 20
-19.266
 30
0.0
 10
-11.45434
 20
-19.266
 30
0.0
  0
SPLINE
  5
63
330
1F
100
AcDbEntity
  8
Layer 1
 62
    30
370
     9
100
AcDbSpline
210
0.0
220
0.0
230
1.0
 70
    27
 71
     3
 72
    12
 73
     8
 74
     0
 42
0.0000000001
 43
0.0000000001
 40
0.0
 40
0.0
 40
0.0
 40
0.0
 40
0.5
 40
0.5
 40
0.5
 40
0.5
 40
1.0
 40
1.0
 40
1.0
 40
1.0
 10
-11.79107
 20
-14.92033
 30
0.0
 10
-11.79107
 20
-14.92033
 30
0.0
 10
-11.79107
 20
-15.2264
 30
0.0
 10
-11.79107
 20
-15.2264
 30
0.0
 10
-11.79107
 20
-15.2264
 30
0.0
 10
-11.79107
 20
-15.2264
 30
0.0
 10
-11.79107
 20
-14.92033
 30
0.0
 10
-11.79107
 20
-14.92033
 30
0.0
  0
SPLINE
  5
64
330
1F
100
AcDbEntity
  8
Layer 1
 62
    30
370
     9
100
AcDbSpline
210
0.0
220
0.0
230
1.0
 70
    11
 71
     3
 72
    68
 73
    64
 74
     0
 42
0.0000000001
 43
0.0000000001
 40
0.0
 40
0.0
 40
0.0
 40
0.0
 40
0.0625
 40
0.0625
 40
0.0625
 40
0.0625
 40
0.125
 40
0.125
 40
0.125
 40
0.125
 40
0.1875
 40
0.1875
 40
0.1875
 40
0.1875
 40
0.25
 40
0.25
 40
0.25
 40
0.25
 40
0.3125
 40
0.3125
 40
0.3125
 40
0.3125
 40
0.375
 40
0.375
 40
0.375
 40
0.375
 40
0.4375
 40
0.4375
 40
0.4375
 40
0.4375
 40
0.5
 40
0.5
 40
0.5
 40
0.5
 40
0.5625
 40
0.5625
 40
0.5625
 40
0.5625
 40
0.625
 40
0.625
 40
0.625
 40
0.625
 40
0.6875
 40
0.6875
 40
0.6875
 40
0.6875
 40
0.75
 40
0.75
 40
0.75
 40
0.75
 40
0.8125
 40
0.8125
 40
0.8125
 40
0.8125
 40
0.875
 40
0.875
 40
0.875
 40
0.875
 40
0.9375
 40
0.9375
 40
0.9375
 40
0.9375
 40
1.0
 40
1.0
 40
1.0
 40
1.0
 10
-11.88124
 20
-15.00796
 30
0.0
 10
-11.86889
 20
-15.00789
 30
0.0
 10
-11.85732
 20
-15.00958
 30
0.0
 10
-11.84652
 20
-15.01311
 30
0.0
 10
-11.84652
 20
-15.01311
 30
0.0
 10
-11.83573
 20
-15.01664
 30
0.0
 10
-11.8262
 20
-15.02257
 30
0.0
 10
-11.81795
 20
-15.03082
 30
0.0
 10
-11.81795
 20
-15.03082
 30
0.0
 10
-11.80969
 20
-15.03908
 30
0.0
 10
-11.80327
 20
-15.05029
 30
0.0
 10
-11.79862
 20
-15.06441
 30
0.0
 10
-11.79862
 20
-15.06441
 30
0.0
 10
-11.79396
 20
-15.07852
 30
0.0
 10
-11.79156
 20
-15.09608
 30
0.0
 10
-11.79149
 20
-15.11718
 30
0.0
 10
-11.79149
 20
-15.11718
 30
0.0
 10
-11.79156
 20
-15.13828
 30
0.0
 10
-11.79396
 20
-15.15584
 30
0.0
 10
-11.79862
 20
-15.16996
 30
0.0
 10
-11.79862
 20
-15.16996
 30
0.0
 10
-11.80327
 20
-15.18407
 30
0.0
 10
-11.80969
 20
-15.19529
 30
0.0
 10
-11.81795
 20
-15.20354
 30
0.0
 10
-11.81795
 20
-15.20354
 30
0.0
 10
-11.8262
 20
-15.2118
 30
0.0
 10
-11.83573
 20
-15.21772
 30
0.0
 10
-11.84652
 20
-15.22125
 30
0.0
 10
-11.84652
 20
-15.22125
 30
0.0
 10
-11.85732
 20
-15.22478
 30
0.0
 10
-11.86889
 20
-15.22647
 30
0.0
 10
-11.88124
 20
-15.2264
 30
0.0
 10
-11.88124
 20
-15.2264
 30
0.0
 10
-11.89358
 20
-15.22647
 30
0.0
 10
-11.90516
 20
-15.22478
 30
0.0
 10
-11.91588
 20
-15.22125
 30
0.0
 10
-11.91588
 20
-15.22125
 30
0.0
 10
-11.92668
 20
-15.21772
 30
0.0
 10
-11.93613
 20
-15.2118
 30
0.0
 10
-11.94431
 20
-15.20354
 30
0.0
 10
-11.94431
 20
-15.20354
 30
0.0
 10
-11.9525
 20
-15.19529
 30
0.0
 10
-11.95892
 20
-15.18407
 30
0.0
 10
-11.9635
 20
-15.16996
 30
0.0
 10
-11.9635
 20
-15.16996
 30
0.0
 10
-11.96816
 20
-15.15584
 30
0.0
 10
-11.97049
 20
-15.13828
 30
0.0
 10
-11.97056
 20
-15.11718
 30
0.0
 10
-11.97056
 20
-15.11718
 30
0.0
 10
-11.97049
 20
-15.09608
 30
0.0
 10
-11.96816
 20
-15.07852
 30
0.0
 10
-11.9635
 20
-15.06441
 30
0.0
 10
-11.9635
 20
-15.06441
 30
0.0
 10
-11.95892
 20
-15.05029
 30
0.0
 10
-11.9525
 20
-15.03908
 30
0.0
 10
-11.94431
 20
-15.03082
 30
0.0
 10
-11.94431
 20
-15.03082
 30
0.0
 10
-11.93613
 20
-15.02257
 30
0.0
 10
-11.92668
 20
-15.01664
 30
0.0
 10
-11.91588
 20
-15.01311
 30
0.0
 10
-11.91588
 20
-15.01311
 30
0.0
 10
-11.90516
 20
-15.00958
 30
0.0
 10
-11.89358
 20
-15.00789
 30
0.0
 10
-11.88124
 20
-15.00796
 30
0.0
  0
SPLINE
  5
65
330
1F
100
AcDbEntity
  8
Layer 1
 62
    30
370
     9
100
AcDbSpline
210
0.0
220
0.0
230
1.0
 70
    27
 71
     3
 72
    12
 73
     8
 74
     0
 42
0.0000000001
 43
0.0000000001
 40
0.0
 40
0.0
 40
0.0
 40
0.0
 40
0.5
 40
0.5
 40
0.5
 40
0.5
 40
1.0
 40
1.0
 40
1.0
 40
1.0
 10
-12.1509
 20
-15.2264
 30
0.0
 10
-12.1509
 20
-15.2264
 30
0.0
 10
-12.1509
 20
-15.00923
 30
0.0
 10
-12.1509
 20
-15.00923
 30
0.0
 10
-12.1509
 20
-15.00923
 30
0.0
 10
-12.1509
 20
-15.00923
 30
0.0
 10
-12.1509
 20
-15.2264
 30
0.0
 10
-12.1509
 20
-15.2264
 30
0.0
  0
SPLINE
  5
66
330
1F
100
AcDbEntity
  8
Layer 1
 62
    30
370
     9
100
AcDbSpline
210
0.0
220
0.0
230
1.0
 70
     8
 71
     3
 72
    24
 73
    20
 74
     0
 42
0.0000000001
 43
0.0000000001
 40
0.0
 40
0.0
 40
0.0
 40
0.0
 40
0.2
 40
0.2
 40
0.2
 40
0.2
 40
0.4
 40
0.4
 40
0.4
 40
0.4
 40
0.6000000000000001
 40
0.6000000000000001
 40
0.6000000000000001
 40
0.6000000000000001
 40
0.8
 40
0.8
 40
0.8
 40
0.8
 40
1.0
 40
1.0
 40
1.0
 40
1.0
 10
-12.1509
 20
-15.11549
 30
0.0
 10
-12.15111
 20
-15.10568
 30
0.0
 10
-12.14963
 20
-15.09573
 30
0.0
 10
-12.14653
 20
-15.08571
 30
0.0
 10
-12.14653
 20
-15.08571
 30
0.0
 10
-12.14342
 20
-15.07569
 30
0.0
 10
-12.13912
 20
-15.0661
 30
0.0
 10
-12.13361
 20
-15.05693
 30
0.0
 10
-12.13361
 20
-15.05693
 30
0.0
 10
-12.12804
 20
-15.04775
 30
0.0
 10
-12.12169
 20
-15.03964
 30
0.0
 10
-12.11449
 20
-15.03244
 30
0.0
 10
-12.11449
 20
-15.03244
 30
0.0
 10
-12.10737
 20
-15.02525
 30
0.0
 10
-12.09975
 20
-15.0196
 30
0.0
 10
-12.09178
 20
-15.01544
 30
0.0
 10
-12.09178
 20
-15.01544
 30
0.0
 10
-12.0838
 20
-15.01128
 30
0.0
 10
-12.0759
 20
-15.00923
 30
0.0
 10
-12.06793
 20
-15.00923
 30
0.0
  0
SPLINE
  5
67
330
1F
100
AcDbEntity
  8
Layer 1
 62
    30
370
     9
100
AcDbSpline
210
0.0
220
0.0
230
1.0
 70
     8
 71
     3
 72
    64
 73
    60
 74
     0
 42
0.0000000001
 43
0.0000000001
 40
0.0
 40
0.0
 40
0.0
 40
0.0
 40
0.0666666666666667
 40
0.0666666666666667
 40
0.0666666666666667
 40
0.0666666666666667
 40
0.1333333333333333
 40
0.1333333333333333
 40
0.1333333333333333
 40
0.1333333333333333
 40
0.2
 40
0.2
 40
0.2
 40
0.2
 40
0.2666666666666667
 40
0.2666666666666667
 40
0.2666666666666667
 40
0.2666666666666667
 40
0.3333333333333333
 40
0.3333333333333333
 40
0.3333333333333333
 40
0.3333333333333333
 40
0.4
 40
0.4
 40
0.4
 40
0.4
 40
0.4666666666666666
 40
0.4666666666666666
 40
0.4666666666666666
 40
0.4666666666666666
 40
0.5333333333333333
 40
0.5333333333333333
 40
0.5333333333333333
 40
0.5333333333333333
 40
0.6
 40
0.6
 40
0.6
 40
0.6
 40
0.6666666666666666
 40
0.6666666666666666
 40
0.6666666666666666
 40
0.6666666666666666
 40
0.7333333333333333
 40
0.7333333333333333
 40
0.7333333333333333
 40
0.7333333333333333
 40
0.7999999999999999
 40
0.7999999999999999
 40
0.7999999999999999
 40
0.7999999999999999
 40
0.8666666666666666
 40
0.8666666666666666
 40
0.8666666666666666
 40
0.8666666666666666
 40
0.9333333333333332
 40
0.9333333333333332
 40
0.9333333333333332
 40
0.9333333333333332
 40
1.0
 40
1.0
 40
1.0
 40
1.0
 10
-12.29822
 20
-15.2264
 30
0.0
 10
-12.29829
 20
-15.2264
 30
0.0
 10
-12.29935
 20
-15.22626
 30
0.0
 10
-12.30133
 20
-15.22598
 30
0.0
 10
-12.30133
 20
-15.22598
 30
0.0
 10
-12.30337
 20
-15.22569
 30
0.0
 10
-12.30584
 20
-15.22499
 30
0.0
 10
-12.30881
 20
-15.224
 30
0.0
 10
-12.30881
 20
-15.224
 30
0.0
 10
-12.31177
 20
-15.22301
 30
0.0
 10
-12.31473
 20
-15.22153
 30
0.0
 10
-12.31769
 20
-15.21956
 30
0.0
 10
-12.31769
 20
-15.21956
 30
0.0
 10
-12.32066
 20
-15.21751
 30
0.0
 10
-12.32313
 20
-15.21483
 30
0.0
 10
-12.32517
 20
-15.21151
 30
0.0
 10
-12.32517
 20
-15.21151
 30
0.0
 10
-12.32715
 20
-15.20813
 30
0.0
 10
-12.32821
 20
-15.20396
 30
0.0
 10
-12.32828
 20
-15.19888
 30
0.0
 10
-12.32828
 20
-15.19888
 30
0.0
 10
-12.32828
 20
-15.19888
 30
0.0
 10
-12.32828
 20
-15.05961
 30
0.0
 10
-12.32828
 20
-15.05961
 30
0.0
 10
-12.32828
 20
-15.05961
 30
0.0
 10
-12.32821
 20
-15.05601
 30
0.0
 10
-12.3287
 20
-15.05192
 30
0.0
 10
-12.32969
 20
-15.0474
 30
0.0
 10
-12.32969
 20
-15.0474
 30
0.0
 10
-12.33061
 20
-15.04289
 30
0.0
 10
-12.33244
 20
-15.03837
 30
0.0
 10
-12.33505
 20
-15.03371
 30
0.0
 10
-12.33505
 20
-15.03371
 30
0.0
 10
-12.33766
 20
-15.02913
 30
0.0
 10
-12.34147
 20
-15.02489
 30
0.0
 10
-12.34641
 20
-15.02101
 30
0.0
 10
-12.34641
 20
-15.02101
 30
0.0
 10
-12.35128
 20
-15.01713
 30
0.0
 10
-12.3577
 20
-15.01403
 30
0.0
 10
-12.36553
 20
-15.01163
 30
0.0
 10
-12.36553
 20
-15.01163
 30
0.0
 10
-12.37336
 20
-15.00923
 30
0.0
 10
-12.38296
 20
-15.00803
 30
0.0
 10
-12.39432
 20
-15.00796
 30
0.0
 10
-12.39432
 20
-15.00796
 30
0.0
 10
-12.40857
 20
-15.00803
 30
0.0
 10
-12.42071
 20
-15.00951
 30
0.0
 10
-12.43065
 20
-15.01241
 30
0.0
 10
-12.43065
 20
-15.01241
 30
0.0
 10
-12.44067
 20
-15.0153
 30
0.0
 10
-12.44872
 20
-15.01925
 30
0.0
 10
-12.45492
 20
-15.02419
 30
0.0
 10
-12.45492
 20
-15.02419
 30
0.0
 10
-12.46106
 20
-15.0292
 30
0.0
 10
-12.46558
 20
-15.03477
 30
0.0
 10
-12.4684
 20
-15.04098
 30
0.0
 10
-12.4684
 20
-15.04098
 30
0.0
 10
-12.47129
 20
-15.04726
 30
0.0
 10
-12.4727
 20
-15.05375
 30
0.0
 10
-12.47263
 20
-15.06045
 30
0.0
  0
SPLINE
  5
68
330
1F
100
AcDbEntity
  8
Layer 1
 62
    30
370
     9
100
AcDbSpline
210
0.0
220
0.0
230
1.0
 70
     8
 71
     3
 72
    68
 73
    64
 74
     0
 42
0.0000000001
 43
0.0000000001
 40
0.0
 40
0.0
 40
0.0
 40
0.0
 40
0.0625
 40
0.0625
 40
0.0625
 40
0.0625
 40
0.125
 40
0.125
 40
0.125
 40
0.125
 40
0.1875
 40
0.1875
 40
0.1875
 40
0.1875
 40
0.25
 40
0.25
 40
0.25
 40
0.25
 40
0.3125
 40
0.3125
 40
0.3125
 40
0.3125
 40
0.375
 40
0.375
 40
0.375
 40
0.375
 40
0.4375
 40
0.4375
 40
0.4375
 40
0.4375
 40
0.5
 40
0.5
 40
0.5
 40
0.5
 40
0.5625
 40
0.5625
 40
0.5625
 40
0.5625
 40
0.625
 40
0.625
 40
0.625
 40
0.625
 40
0.6875
 40
0.6875
 40
0.6875
 40
0.6875
 40
0.75
 40
0.75
 40
0.75
 40
0.75
 40
0.8125
 40
0.8125
 40
0.8125
 40
0.8125
 40
0.875
 40
0.875
 40
0.875
 40
0.875
 40
0.9375
 40
0.9375
 40
0.9375
 40
0.9375
 40
1.0
 40
1.0
 40
1.0
 40
1.0
 10
-12.32828
 20
-15.17094
 30
0.0
 10
-12.33089
 20
-15.17468
 30
0.0
 10
-12.33456
 20
-15.17906
 30
0.0
 10
-12.33928
 20
-15.18407
 30
0.0
 10
-12.33928
 20
-15.18407
 30
0.0
 10
-12.34401
 20
-15.18915
 30
0.0
 10
-12.34952
 20
-15.1943
 30
0.0
 10
-12.35579
 20
-15.19959
 30
0.0
 10
-12.35579
 20
-15.19959
 30
0.0
 10
-12.36207
 20
-15.20488
 30
0.0
 10
-12.36878
 20
-15.20982
 30
0.0
 10
-12.3759
 20
-15.21434
 30
0.0
 10
-12.3759
 20
-15.21434
 30
0.0
 10
-12.38303
 20
-15.21885
 30
0.0
 10
-12.3903
 20
-15.22245
 30
0.0
 10
-12.3977
 20
-15.22513
 30
0.0
 10
-12.3977
 20
-15.22513
 30
0.0
 10
-12.40511
 20
-15.22781
 30
0.0
 10
-12.41231
 20
-15.22908
 30
0.0
 10
-12.41929
 20
-15.22894
 30
0.0
 10
-12.41929
 20
-15.22894
 30
0.0
 10
-12.42811
 20
-15.22866
 30
0.0
 10
-12.43637
 20
-15.22767
 30
0.0
 10
-12.44399
 20
-15.22591
 30
0.0
 10
-12.44399
 20
-15.22591
 30
0.0
 10
-12.45161
 20
-15.22407
 30
0.0
 10
-12.45824
 20
-15.22132
 30
0.0
 10
-12.46403
 20
-15.21744
 30
0.0
 10
-12.46403
 20
-15.21744
 30
0.0
 10
-12.46974
 20
-15.21363
 30
0.0
 10
-12.47426
 20
-15.20848
 30
0.0
 10
-12.47743
 20
-15.20199
 30
0.0
 10
-12.47743
 20
-15.20199
 30
0.0
 10
-12.48068
 20
-15.1955
 30
0.0
 10
-12.4823
 20
-15.18738
 30
0.0
 10
-12.48237
 20
-15.17772
 30
0.0
 10
-12.48237
 20
-15.17772
 30
0.0
 10
-12.48237
 20
-15.16466
 30
0.0
 10
-12.47976
 20
-15.15394
 30
0.0
 10
-12.47454
 20
-15.14554
 30
0.0
 10
-12.47454
 20
-15.14554
 30
0.0
 10
-12.46939
 20
-15.13722
 30
0.0
 10
-12.4617
 20
-15.1308
 30
0.0
 10
-12.45154
 20
-15.12635
 30
0.0
 10
-12.45154
 20
-15.12635
 30
0.0
 10
-12.44131
 20
-15.12184
 30
0.0
 10
-12.42875
 20
-15.11894
 30
0.0
 10
-12.41379
 20
-15.1176
 30
0.0
 10
-12.41379
 20
-15.1176
 30
0.0
 10
-12.40271
 20
-15.11655
 30
0.0
 10
-12.39305
 20
-15.11535
 30
0.0
 10
-12.38465
 20
-15.11401
 30
0.0
 10
-12.38465
 20
-15.11401
 30
0.0
 10
-12.37626
 20
-15.11267
 30
0.0
 10
-12.36885
 20
-15.11125
 30
0.0
 10
-12.36229
 20
-15.10977
 30
0.0
 10
-12.36229
 20
-15.10977
 30
0.0
 10
-12.35579
 20
-15.10829
 30
0.0
 10
-12.3498
 20
-15.10674
 30
0.0
 10
-12.34429
 20
-15.10519
 30
0.0
 10
-12.34429
 20
-15.10519
 30
0.0
 10
-12.33886
 20
-15.1037
 30
0.0
 10
-12.3335
 20
-15.10215
 30
0.0
 10
-12.32828
 20
-15.10067
 30
0.0
  0
SPLINE
  5
69
330
1F
100
AcDbEntity
  8
Layer 1
 62
    30
370
     9
100
AcDbSpline
210
0.0
220
0.0
230
1.0
 70
    11
 71
     3
 72
    68
 73
    64
 74
     0
 42
0.0000000001
 43
0.0000000001
 40
0.0
 40
0.0
 40
0.0
 40
0.0
 40
0.0625
 40
0.0625
 40
0.0625
 40
0.0625
 40
0.125
 40
0.125
 40
0.125
 40
0.125
 40
0.1875
 40
0.1875
 40
0.1875
 40
0.1875
 40
0.25
 40
0.25
 40
0.25
 40
0.25
 40
0.3125
 40
0.3125
 40
0.3125
 40
0.3125
 40
0.375
 40
0.375
 40
0.375
 40
0.375
 40
0.4375
 40
0.4375
 40
0.4375
 40
0.4375
 40
0.5
 40
0.5
 40
0.5
 40
0.5
 40
0.5625
 40
0.5625
 40
0.5625
 40
0.5625
 40
0.625
 40
0.625
 40
0.625
 40
0.625
 40
0.6875
 40
0.6875
 40
0.6875
 40
0.6875
 40
0.75
 40
0.75
 40
0.75
 40
0.75
 40
0.8125
 40
0.8125
 40
0.8125
 40
0.8125
 40
0.875
 40
0.875
 40
0.875
 40
0.875
 40
0.9375
 40
0.9375
 40
0.9375
 40
0.9375
 40
1.0
 40
1.0
 40
1.0
 40
1.0
 10
-12.67921
 20
-15.2264
 30
0.0
 10
-12.66588
 20
-15.22647
 30
0.0
 10
-12.65346
 20
-15.22478
 30
0.0
 10
-12.64189
 20
-15.22118
 30
0.0
 10
-12.64189
 20
-15.22118
 30
0.0
 10
-12.63032
 20
-15.21758
 30
0.0
 10
-12.62009
 20
-15.21158
 30
0.0
 10
-12.61134
 20
-15.20319
 30
0.0
 10
-12.61134
 20
-15.20319
 30
0.0
 10
-12.60252
 20
-15.19479
 30
0.0
 10
-12.59568
 20
-15.18343
 30
0.0
 10
-12.59067
 20
-15.16904
 30
0.0
 10
-12.59067
 20
-15.16904
 30
0.0
 10
-12.58573
 20
-15.15472
 30
0.0
 10
-12.58319
 20
-15.13687
 30
0.0
 10
-12.58312
 20
-15.11549
 30
0.0
 10
-12.58312
 20
-15.11549
 30
0.0
 10
-12.58319
 20
-15.09418
 30
0.0
 10
-12.58573
 20
-15.0764
 30
0.0
 10
-12.59067
 20
-15.06215
 30
0.0
 10
-12.59067
 20
-15.06215
 30
0.0
 10
-12.59568
 20
-15.0479
 30
0.0
 10
-12.60252
 20
-15.03654
 30
0.0
 10
-12.61134
 20
-15.02814
 30
0.0
 10
-12.61134
 20
-15.02814
 30
0.0
 10
-12.62009
 20
-15.01981
 30
0.0
 10
-12.63032
 20
-15.01382
 30
0.0
 10
-12.64189
 20
-15.01022
 30
0.0
 10
-12.64189
 20
-15.01022
 30
0.0
 10
-12.65346
 20
-15.00662
 30
0.0
 10
-12.66588
 20
-15.00493
 30
0.0
 10
-12.67921
 20
-15.005
 30
0.0
 10
-12.67921
 20
-15.005
 30
0.0
 10
-12.69241
 20
-15.00493
 30
0.0
 10
-12.70483
 20
-15.00662
 30
0.0
 10
-12.7164
 20
-15.01022
 30
0.0
 10
-12.7164
 20
-15.01022
 30
0.0
 10
-12.72797
 20
-15.01382
 30
0.0
 10
-12.73813
 20
-15.01981
 30
0.0
 10
-12.74695
 20
-15.02814
 30
0.0
 10
-12.74695
 20
-15.02814
 30
0.0
 10
-12.75577
 20
-15.03654
 30
0.0
 10
-12.76268
 20
-15.0479
 30
0.0
 10
-12.76769
 20
-15.06215
 30
0.0
 10
-12.76769
 20
-15.06215
 30
0.0
 10
-12.7727
 20
-15.0764
 30
0.0
 10
-12.77524
 20
-15.09418
 30
0.0
 10
-12.77531
 20
-15.11549
 30
0.0
 10
-12.77531
 20
-15.11549
 30
0.0
 10
-12.77524
 20
-15.13687
 30
0.0
 10
-12.7727
 20
-15.15472
 30
0.0
 10
-12.76769
 20
-15.16904
 30
0.0
 10
-12.76769
 20
-15.16904
 30
0.0
 10
-12.76268
 20
-15.18343
 30
0.0
 10
-12.75577
 20
-15.19479
 30
0.0
 10
-12.74695
 20
-15.20319
 30
0.0
 10
-12.74695
 20
-15.20319
 30
0.0
 10
-12.73813
 20
-15.21158
 30
0.0
 10
-12.72797
 20
-15.21758
 30
0.0
 10
-12.7164
 20
-15.22118
 30
0.0
 10
-12.7164
 20
-15.22118
 30
0.0
 10
-12.70483
 20
-15.22478
 30
0.0
 10
-12.69241
 20
-15.22647
 30
0.0
 10
-12.67921
 20
-15.2264
 30
0.0
  0
SPLINE
  5
6A
330
1F
100
AcDbEntity
  8
Layer 1
 62
    30
370
     9
100
AcDbSpline
210
0.0
220
0.0
230
1.0
 70
    11
 71
     3
 72
    68
 73
    64
 74
     0
 42
0.0000000001
 43
0.0000000001
 40
0.0
 40
0.0
 40
0.0
 40
0.0
 40
0.0625
 40
0.0625
 40
0.0625
 40
0.0625
 40
0.125
 40
0.125
 40
0.125
 40
0.125
 40
0.1875
 40
0.1875
 40
0.1875
 40
0.1875
 40
0.25
 40
0.25
 40
0.25
 40
0.25
 40
0.3125
 40
0.3125
 40
0.3125
 40
0.3125
 40
0.375
 40
0.375
 40
0.375
 40
0.375
 40
0.4375
 40
0.4375
 40
0.4375
 40
0.4375
 40
0.5
 40
0.5
 40
0.5
 40
0.5
 40
0.5625
 40
0.5625
 40
0.5625
 40
0.5625
 40
0.625
 40
0.625
 40
0.625
 40
0.625
 40
0.6875
 40
0.6875
 40
0.6875
 40
0.6875
 40
0.75
 40
0.75
 40
0.75
 40
0.75
 40
0.8125
 40
0.8125
 40
0.8125
 40
0.8125
 40
0.875
 40
0.875
 40
0.875
 40
0.875
 40
0.9375
 40
0.9375
 40
0.9375
 40
0.9375
 40
1.0
 40
1.0
 40
1.0
 40
1.0
 10
-12.9675
 20
-15.00796
 30
0.0
 10
-12.95502
 20
-15.00789
 30
0.0
 10
-12.94337
 20
-15.00958
 30
0.0
 10
-12.93258
 20
-15.01304
 30
0.0
 10
-12.93258
 20
-15.01304
 30
0.0
 10
-12.92179
 20
-15.01657
 30
0.0
 10
-12.91226
 20
-15.02243
 30
0.0
 10
-12.90408
 20
-15.03068
 30
0.0
 10
-12.90408
 20
-15.03068
 30
0.0
 10
-12.89582
 20
-15.03894
 30
0.0
 10
-12.88947
 20
-15.05008
 30
0.0
 10
-12.88481
 20
-15.06419
 30
0.0
 10
-12.88481
 20
-15.06419
 30
0.0
 10
-12.88016
 20
-15.07838
 30
0.0
 10
-12.87783
 20
-15.09601
 30
0.0
 10
-12.87776
 20
-15.11718
 30
0.0
 10
-12.87776
 20
-15.11718
 30
0.0
 10
-12.87783
 20
-15.13828
 30
0.0
 10
-12.88016
 20
-15.15584
 30
0.0
 10
-12.88481
 20
-15.16996
 30
0.0
 10
-12.88481
 20
-15.16996
 30
0.0
 10
-12.88947
 20
-15.18407
 30
0.0
 10
-12.89582
 20
-15.19529
 30
0.0
 10
-12.90408
 20
-15.20354
 30
0.0
 10
-12.90408
 20
-15.20354
 30
0.0
 10
-12.91226
 20
-15.2118
 30
0.0
 10
-12.92179
 20
-15.21772
 30
0.0
 10
-12.93258
 20
-15.22125
 30
0.0
 10
-12.93258
 20
-15.22125
 30
0.0
 10
-12.94337
 20
-15.22478
 30
0.0
 10
-12.95502
 20
-15.22647
 30
0.0
 10
-12.9675
 20
-15.2264
 30
0.0
 10
-12.9675
 20
-15.2264
 30
0.0
 10
-12.97999
 20
-15.22647
 30
0.0
 10
-12.99163
 20
-15.22478
 30
0.0
 10
-13.00243
 20
-15.22125
 30
0.0
 10
-13.00243
 20
-15.22125
 30
0.0
 10
-13.01322
 20
-15.21772
 30
0.0
 10
-13.02275
 20
-15.2118
 30
0.0
 10
-13.03093
 20
-15.20354
 30
0.0
 10
-13.03093
 20
-15.20354
 30
0.0
 10
-13.03919
 20
-15.19529
 30
0.0
 10
-13.04554
 20
-15.18407
 30
0.0
 10
-13.0502
 20
-15.16996
 30
0.0
 10
-13.0502
 20
-15.16996
 30
0.0
 10
-13.05485
 20
-15.15584
 30
0.0
 10
-13.05718
 20
-15.13828
 30
0.0
 10
-13.05725
 20
-15.11718
 30
0.0
 10
-13.05725
 20
-15.11718
 30
0.0
 10
-13.05718
 20
-15.09601
 30
0.0
 10
-13.05485
 20
-15.07838
 30
0.0
 10
-13.0502
 20
-15.06419
 30
0.0
 10
-13.0502
 20
-15.06419
 30
0.0
 10
-13.04554
 20
-15.05008
 30
0.0
 10
-13.03919
 20
-15.03894
 30
0.0
 10
-13.03093
 20
-15.03068
 30
0.0
 10
-13.03093
 20
-15.03068
 30
0.0
 10
-13.02275
 20
-15.02243
 30
0.0
 10
-13.01322
 20
-15.01657
 30
0.0
 10
-13.00243
 20
-15.01304
 30
0.0
 10
-13.00243
 20
-15.01304
 30
0.0
 10
-12.99163
 20
-15.00958
 30
0.0
 10
-12.97999
 20
-15.00789
 30
0.0
 10
-12.9675
 20
-15.00796
 30
0.0
  0
SPLINE
  5
6B
330
1F
100
AcDbEntity
  8
Layer 1
 62
    30
370
     9
100
AcDbSpline
210
0.0
220
0.0
230
1.0
 70
    27
 71
     3
 72
    12
 73
     8
 74
     0
 42
0.0000000001
 43
0.0000000001
 40
0.0
 40
0.0
 40
0.0
 40
0.0
 40
0.5
 40
0.5
 40
0.5
 40
0.5
 40
1.0
 40
1.0
 40
1.0
 40
1.0
 10
-13.05725
 20
-14.91991
 30
0.0
 10
-13.05725
 20
-14.91991
 30
0.0
 10
-13.05725
 20
-15.2264
 30
0.0
 10
-13.05725
 20
-15.2264
 30
0.0
 10
-13.05725
 20
-15.2264
 30
0.0
 10
-13.05725
 20
-15.2264
 30
0.0
 10
-13.05725
 20
-14.91991
 30
0.0
 10
-13.05725
 20
-14.91991
 30
0.0
  0
SPLINE
  5
6C
330
1F
100
AcDbEntity
  8
Layer 1
 62
    30
370
     9
100
AcDbSpline
210
0.0
220
0.0
230
1.0
 70
    27
 71
     3
 72
    12
 73
     8
 74
     0
 42
0.0000000001
 43
0.0000000001
 40
0.0
 40
0.0
 40
0.0
 40
0.0
 40
0.5
 40
0.5
 40
0.5
 40
0.5
 40
1.0
 40
1.0
 40
1.0
 40
1.0
 10
-13.25071
 20
-14.92033
 30
0.0
 10
-13.25071
 20
-14.92033
 30
0.0
 10
-13.25071
 20
-15.2264
 30
0.0
 10
-13.25071
 20
-15.2264
 30
0.0
 10
-13.25071
 20
-15.2264
 30
0.0
 10
-13.25071
 20
-15.2264
 30
0.0
 10
-13.25071
 20
-14.92033
 30
0.0
 10
-13.25071
 20
-14.92033
 30
0.0
  0
SPLINE
  5
6D
330
1F
100
AcDbEntity
  8
Layer 1
 62
    30
370
     9
100
AcDbSpline
210
0.0
220
0.0
230
1.0
 70
    11
 71
     3
 72
    68
 73
    64
 74
     0
 42
0.0000000001
 43
0.0000000001
 40
0.0
 40
0.0
 40
0.0
 40
0.0
 40
0.0625
 40
0.0625
 40
0.0625
 40
0.0625
 40
0.125
 40
0.125
 40
0.125
 40
0.125
 40
0.1875
 40
0.1875
 40
0.1875
 40
0.1875
 40
0.25
 40
0.25
 40
0.25
 40
0.25
 40
0.3125
 40
0.3125
 40
0.3125
 40
0.3125
 40
0.375
 40
0.375
 40
0.375
 40
0.375
 40
0.4375
 40
0.4375
 40
0.4375
 40
0.4375
 40
0.5
 40
0.5
 40
0.5
 40
0.5
 40
0.5625
 40
0.5625
 40
0.5625
 40
0.5625
 40
0.625
 40
0.625
 40
0.625
 40
0.625
 40
0.6875
 40
0.6875
 40
0.6875
 40
0.6875
 40
0.75
 40
0.75
 40
0.75
 40
0.75
 40
0.8125
 40
0.8125
 40
0.8125
 40
0.8125
 40
0.875
 40
0.875
 40
0.875
 40
0.875
 40
0.9375
 40
0.9375
 40
0.9375
 40
0.9375
 40
1.0
 40
1.0
 40
1.0
 40
1.0
 10
-13.34088
 20
-15.00796
 30
0.0
 10
-13.32853
 20
-15.00789
 30
0.0
 10
-13.31696
 20
-15.00958
 30
0.0
 10
-13.30616
 20
-15.01311
 30
0.0
 10
-13.30616
 20
-15.01311
 30
0.0
 10
-13.29537
 20
-15.01664
 30
0.0
 10
-13.28584
 20
-15.02257
 30
0.0
 10
-13.27759
 20
-15.03082
 30
0.0
 10
-13.27759
 20
-15.03082
 30
0.0
 10
-13.26933
 20
-15.03908
 30
0.0
 10
-13.26291
 20
-15.05029
 30
0.0
 10
-13.25826
 20
-15.06441
 30
0.0
 10
-13.25826
 20
-15.06441
 30
0.0
 10
-13.2536
 20
-15.07852
 30
0.0
 10
-13.2512
 20
-15.09608
 30
0.0
 10
-13.25113
 20
-15.11718
 30
0.0
 10
-13.25113
 20
-15.11718
 30
0.0
 10
-13.2512
 20
-15.13828
 30
0.0
 10
-13.2536
 20
-15.15584
 30
0.0
 10
-13.25826
 20
-15.16996
 30
0.0
 10
-13.25826
 20
-15.16996
 30
0.0
 10
-13.26291
 20
-15.18407
 30
0.0
 10
-13.26933
 20
-15.19529
 30
0.0
 10
-13.27759
 20
-15.20354
 30
0.0
 10
-13.27759
 20
-15.20354
 30
0.0
 10
-13.28584
 20
-15.2118
 30
0.0
 10
-13.29537
 20
-15.21772
 30
0.0
 10
-13.30616
 20
-15.22125
 30
0.0
 10
-13.30616
 20
-15.22125
 30
0.0
 10
-13.31696
 20
-15.22478
 30
0.0
 10
-13.32853
 20
-15.22647
 30
0.0
 10
-13.34088
 20
-15.2264
 30
0.0
 10
-13.34088
 20
-15.2264
 30
0.0
 10
-13.35322
 20
-15.22647
 30
0.0
 10
-13.3648
 20
-15.22478
 30
0.0
 10
-13.37552
 20
-15.22125
 30
0.0
 10
-13.37552
 20
-15.22125
 30
0.0
 10
-13.38632
 20
-15.21772
 30
0.0
 10
-13.39577
 20
-15.2118
 30
0.0
 10
-13.40395
 20
-15.20354
 30
0.0
 10
-13.40395
 20
-15.20354
 30
0.0
 10
-13.41214
 20
-15.19529
 30
0.0
 10
-13.41856
 20
-15.18407
 30
0.0
 10
-13.42314
 20
-15.16996
 30
0.0
 10
-13.42314
 20
-15.16996
 30
0.0
 10
-13.4278
 20
-15.15584
 30
0.0
 10
-13.43013
 20
-15.13828
 30
0.0
 10
-13.4302
 20
-15.11718
 30
0.0
 10
-13.4302
 20
-15.11718
 30
0.0
 10
-13.43013
 20
-15.09608
 30
0.0
 10
-13.4278
 20
-15.07852
 30
0.0
 10
-13.42314
 20
-15.06441
 30
0.0
 10
-13.42314
 20
-15.06441
 30
0.0
 10
-13.41856
 20
-15.05029
 30
0.0
 10
-13.41214
 20
-15.03908
 30
0.0
 10
-13.40395
 20
-15.03082
 30
0.0
 10
-13.40395
 20
-15.03082
 30
0.0
 10
-13.39577
 20
-15.02257
 30
0.0
 10
-13.38632
 20
-15.01664
 30
0.0
 10
-13.37552
 20
-15.01311
 30
0.0
 10
-13.37552
 20
-15.01311
 30
0.0
 10
-13.3648
 20
-15.00958
 30
0.0
 10
-13.35322
 20
-15.00789
 30
0.0
 10
-13.34088
 20
-15.00796
 30
0.0
  0
SPLINE
  5
6E
330
1F
100
AcDbEntity
  8
Layer 1
 62
    30
370
     9
100
AcDbSpline
210
0.0
220
0.0
230
1.0
 70
     8
 71
     3
 72
    64
 73
    60
 74
     0
 42
0.0000000001
 43
0.0000000001
 40
0.0
 40
0.0
 40
0.0
 40
0.0
 40
0.0666666666666667
 40
0.0666666666666667
 40
0.0666666666666667
 40
0.0666666666666667
 40
0.1333333333333333
 40
0.1333333333333333
 40
0.1333333333333333
 40
0.1333333333333333
 40
0.2
 40
0.2
 40
0.2
 40
0.2
 40
0.2666666666666667
 40
0.2666666666666667
 40
0.2666666666666667
 40
0.2666666666666667
 40
0.3333333333333333
 40
0.3333333333333333
 40
0.3333333333333333
 40
0.3333333333333333
 40
0.4
 40
0.4
 40
0.4
 40
0.4
 40
0.4666666666666666
 40
0.4666666666666666
 40
0.4666666666666666
 40
0.4666666666666666
 40
0.5333333333333333
 40
0.5333333333333333
 40
0.5333333333333333
 40
0.5333333333333333
 40
0.6
 40
0.6
 40
0.6
 40
0.6
 40
0.6666666666666666
 40
0.6666666666666666
 40
0.6666666666666666
 40
0.6666666666666666
 40
0.7333333333333333
 40
0.7333333333333333
 40
0.7333333333333333
 40
0.7333333333333333
 40
0.7999999999999999
 40
0.7999999999999999
 40
0.7999999999999999
 40
0.7999999999999999
 40
0.8666666666666666
 40
0.8666666666666666
 40
0.8666666666666666
 40
0.8666666666666666
 40
0.9333333333333332
 40
0.9333333333333332
 40
0.9333333333333332
 40
0.9333333333333332
 40
1.0
 40
1.0
 40
1.0
 40
1.0
 10
-13.53053
 20
-15.2264
 30
0.0
 10
-13.5306
 20
-15.2264
 30
0.0
 10
-13.53166
 20
-15.22626
 30
0.0
 10
-13.53364
 20
-15.22598
 30
0.0
 10
-13.53364
 20
-15.22598
 30
0.0
 10
-13.53568
 20
-15.22569
 30
0.0
 10
-13.53815
 20
-15.22499
 30
0.0
 10
-13.54112
 20
-15.224
 30
0.0
 10
-13.54112
 20
-15.224
 30
0.0
 10
-13.54408
 20
-15.22301
 30
0.0
 10
-13.54704
 20
-15.22153
 30
0.0
 10
-13.55
 20
-15.21956
 30
0.0
 10
-13.55
 20
-15.21956
 30
0.0
 10
-13.55297
 20
-15.21751
 30
0.0
 10
-13.55544
 20
-15.21483
 30
0.0
 10
-13.55748
 20
-15.21151
 30
0.0
 10
-13.55748
 20
-15.21151
 30
0.0
 10
-13.55946
 20
-15.20813
 30
0.0
 10
-13.56052
 20
-15.20396
 30
0.0
 10
-13.56059
 20
-15.19888
 30
0.0
 10
-13.56059
 20
-15.19888
 30
0.0
 10
-13.56059
 20
-15.19888
 30
0.0
 10
-13.56059
 20
-15.05961
 30
0.0
 10
-13.56059
 20
-15.05961
 30
0.0
 10
-13.56059
 20
-15.05961
 30
0.0
 10
-13.56052
 20
-15.05601
 30
0.0
 10
-13.56101
 20
-15.05192
 30
0.0
 10
-13.562
 20
-15.0474
 30
0.0
 10
-13.562
 20
-15.0474
 30
0.0
 10
-13.56292
 20
-15.04289
 30
0.0
 10
-13.56475
 20
-15.03837
 30
0.0
 10
-13.56736
 20
-15.03371
 30
0.0
 10
-13.56736
 20
-15.03371
 30
0.0
 10
-13.56997
 20
-15.02913
 30
0.0
 10
-13.57378
 20
-15.02489
 30
0.0
 10
-13.57872
 20
-15.02101
 30
0.0
 10
-13.57872
 20
-15.02101
 30
0.0
 10
-13.58359
 20
-15.01713
 30
0.0
 10
-13.59001
 20
-15.01403
 30
0.0
 10
-13.59784
 20
-15.01163
 30
0.0
 10
-13.59784
 20
-15.01163
 30
0.0
 10
-13.60567
 20
-15.00923
 30
0.0
 10
-13.61527
 20
-15.00803
 30
0.0
 10
-13.62663
 20
-15.00796
 30
0.0
 10
-13.62663
 20
-15.00796
 30
0.0
 10
-13.64088
 20
-15.00803
 30
0.0
 10
-13.65302
 20
-15.00951
 30
0.0
 10
-13.66296
 20
-15.01241
 30
0.0
 10
-13.66296
 20
-15.01241
 30
0.0
 10
-13.67298
 20
-15.0153
 30
0.0
 10
-13.68103
 20
-15.01925
 30
0.0
 10
-13.68723
 20
-15.02419
 30
0.0
 10
-13.68723
 20
-15.02419
 30
0.0
 10
-13.69337
 20
-15.0292
 30
0.0
 10
-13.69789
 20
-15.03477
 30
0.0
 10
-13.70071
 20
-15.04098
 30
0.0
 10
-13.70071
 20
-15.04098
 30
0.0
 10
-13.7036
 20
-15.04726
 30
0.0
 10
-13.70501
 20
-15.05375
 30
0.0
 10
-13.70494
 20
-15.06045
 30
0.0
  0
SPLINE
  5
6F
330
1F
100
AcDbEntity
  8
Layer 1
 62
    30
370
     9
100
AcDbSpline
210
0.0
220
0.0
230
1.0
 70
     8
 71
     3
 72
    68
 73
    64
 74
     0
 42
0.0000000001
 43
0.0000000001
 40
0.0
 40
0.0
 40
0.0
 40
0.0
 40
0.0625
 40
0.0625
 40
0.0625
 40
0.0625
 40
0.125
 40
0.125
 40
0.125
 40
0.125
 40
0.1875
 40
0.1875
 40
0.1875
 40
0.1875
 40
0.25
 40
0.25
 40
0.25
 40
0.25
 40
0.3125
 40
0.3125
 40
0.3125
 40
0.3125
 40
0.375
 40
0.375
 40
0.375
 40
0.375
 40
0.4375
 40
0.4375
 40
0.4375
 40
0.4375
 40
0.5
 40
0.5
 40
0.5
 40
0.5
 40
0.5625
 40
0.5625
 40
0.5625
 40
0.5625
 40
0.625
 40
0.625
 40
0.625
 40
0.625
 40
0.6875
 40
0.6875
 40
0.6875
 40
0.6875
 40
0.75
 40
0.75
 40
0.75
 40
0.75
 40
0.8125
 40
0.8125
 40
0.8125
 40
0.8125
 40
0.875
 40
0.875
 40
0.875
 40
0.875
 40
0.9375
 40
0.9375
 40
0.9375
 40
0.9375
 40
1.0
 40
1.0
 40
1.0
 40
1.0
 10
-13.56059
 20
-15.17094
 30
0.0
 10
-13.5632
 20
-15.17468
 30
0.0
 10
-13.56687
 20
-15.17906
 30
0.0
 10
-13.57159
 20
-15.18407
 30
0.0
 10
-13.57159
 20
-15.18407
 30
0.0
 10
-13.57632
 20
-15.18915
 30
0.0
 10
-13.58183
 20
-15.1943
 30
0.0
 10
-13.5881
 20
-15.19959
 30
0.0
 10
-13.5881
 20
-15.19959
 30
0.0
 10
-13.59438
 20
-15.20488
 30
0.0
 10
-13.60109
 20
-15.20982
 30
0.0
 10
-13.60821
 20
-15.21434
 30
0.0
 10
-13.60821
 20
-15.21434
 30
0.0
 10
-13.61534
 20
-15.21885
 30
0.0
 10
-13.62261
 20
-15.22245
 30
0.0
 10
-13.63001
 20
-15.22513
 30
0.0
 10
-13.63001
 20
-15.22513
 30
0.0
 10
-13.63742
 20
-15.22781
 30
0.0
 10
-13.64462
 20
-15.22908
 30
0.0
 10
-13.6516
 20
-15.22894
 30
0.0
 10
-13.6516
 20
-15.22894
 30
0.0
 10
-13.66042
 20
-15.22866
 30
0.0
 10
-13.66868
 20
-15.22767
 30
0.0
 10
-13.6763
 20
-15.22591
 30
0.0
 10
-13.6763
 20
-15.22591
 30
0.0
 10
-13.68392
 20
-15.22407
 30
0.0
 10
-13.69055
 20
-15.22132
 30
0.0
 10
-13.69634
 20
-15.21744
 30
0.0
 10
-13.69634
 20
-15.21744
 30
0.0
 10
-13.70205
 20
-15.21363
 30
0.0
 10
-13.70657
 20
-15.20848
 30
0.0
 10
-13.70974
 20
-15.20199
 30
0.0
 10
-13.70974
 20
-15.20199
 30
0.0
 10
-13.71299
 20
-15.1955
 30
0.0
 10
-13.71461
 20
-15.18738
 30
0.0
 10
-13.71468
 20
-15.17772
 30
0.0
 10
-13.71468
 20
-15.17772
 30
0.0
 10
-13.71468
 20
-15.16466
 30
0.0
 10
-13.71207
 20
-15.15394
 30
0.0
 10
-13.70685
 20
-15.14554
 30
0.0
 10
-13.70685
 20
-15.14554
 30
0.0
 10
-13.7017
 20
-15.13722
 30
0.0
 10
-13.69401
 20
-15.1308
 30
0.0
 10
-13.68385
 20
-15.12635
 30
0.0
 10
-13.68385
 20
-15.12635
 30
0.0
 10
-13.67362
 20
-15.12184
 30
0.0
 10
-13.66106
 20
-15.11894
 30
0.0
 10
-13.6461
 20
-15.1176
 30
0.0
 10
-13.6461
 20
-15.1176
 30
0.0
 10
-13.63502
 20
-15.11655
 30
0.0
 10
-13.62536
 20
-15.11535
 30
0.0
 10
-13.61696
 20
-15.11401
 30
0.0
 10
-13.61696
 20
-15.11401
 30
0.0
 10
-13.60857
 20
-15.11267
 30
0.0
 10
-13.60116
 20
-15.11125
 30
0.0
 10
-13.5946
 20
-15.10977
 30
0.0
 10
-13.5946
 20
-15.10977
 30
0.0
 10
-13.5881
 20
-15.10829
 30
0.0
 10
-13.58211
 20
-15.10674
 30
0.0
 10
-13.5766
 20
-15.10519
 30
0.0
 10
-13.5766
 20
-15.10519
 30
0.0
 10
-13.57117
 20
-15.1037
 30
0.0
 10
-13.56581
 20
-15.10215
 30
0.0
 10
-13.56059
 20
-15.10067
 30
0.0
  0
SPLINE
  5
70
330
1F
100
AcDbEntity
  8
Layer 1
 62
    30
370
     9
100
AcDbSpline
210
0.0
220
0.0
230
1.0
 70
     8
 71
     3
 72
    80
 73
    76
 74
     0
 42
0.0000000001
 43
0.0000000001
 40
0.0
 40
0.0
 40
0.0
 40
0.0
 40
0.0526315789473684
 40
0.0526315789473684
 40
0.0526315789473684
 40
0.0526315789473684
 40
0.1052631578947368
 40
0.1052631578947368
 40
0.1052631578947368
 40
0.1052631578947368
 40
0.1578947368421053
 40
0.1578947368421053
 40
0.1578947368421053
 40
0.1578947368421053
 40
0.2105263157894737
 40
0.2105263157894737
 40
0.2105263157894737
 40
0.2105263157894737
 40
0.2631578947368421
 40
0.2631578947368421
 40
0.2631578947368421
 40
0.2631578947368421
 40
0.3157894736842105
 40
0.3157894736842105
 40
0.3157894736842105
 40
0.3157894736842105
 40
0.3684210526315789
 40
0.3684210526315789
 40
0.3684210526315789
 40
0.3684210526315789
 40
0.4210526315789473
 40
0.4210526315789473
 40
0.4210526315789473
 40
0.4210526315789473
 40
0.4736842105263158
 40
0.4736842105263158
 40
0.4736842105263158
 40
0.4736842105263158
 40
0.5263157894736842
 40
0.5263157894736842
 40
0.5263157894736842
 40
0.5263157894736842
 40
0.5789473684210527
 40
0.5789473684210527
 40
0.5789473684210527
 40
0.5789473684210527
 40
0.631578947368421
 40
0.631578947368421
 40
0.631578947368421
 40
0.631578947368421
 40
0.6842105263157894
 40
0.6842105263157894
 40
0.6842105263157894
 40
0.6842105263157894
 40
0.7368421052631577
 40
0.7368421052631577
 40
0.7368421052631577
 40
0.7368421052631577
 40
0.7894736842105261
 40
0.7894736842105261
 40
0.7894736842105261
 40
0.7894736842105261
 40
0.8421052631578945
 40
0.8421052631578945
 40
0.8421052631578945
 40
0.8421052631578945
 40
0.8947368421052628
 40
0.8947368421052628
 40
0.8947368421052628
 40
0.8947368421052628
 40
0.9473684210526312
 40
0.9473684210526312
 40
0.9473684210526312
 40
0.9473684210526312
 40
1.0
 40
1.0
 40
1.0
 40
1.0
 10
-14.00847
 20
-15.11041
 30
0.0
 10
-14.00847
 20
-15.11041
 30
0.0
 10
-13.81924
 20
-15.11041
 30
0.0
 10
-13.81924
 20
-15.11041
 30
0.0
 10
-13.81924
 20
-15.11041
 30
0.0
 10
-13.81917
 20
-15.10088
 30
0.0
 10
-13.82001
 20
-15.09122
 30
0.0
 10
-13.82171
 20
-15.0812
 30
0.0
 10
-13.82171
 20
-15.0812
 30
0.0
 10
-13.8234
 20
-15.07125
 30
0.0
 10
-13.82622
 20
-15.06165
 30
0.0
 10
-13.8301
 20
-15.05241
 30
0.0
 10
-13.8301
 20
-15.05241
 30
0.0
 10
-13.83398
 20
-15.04317
 30
0.0
 10
-13.83928
 20
-15.03484
 30
0.0
 10
-13.84584
 20
-15.02751
 30
0.0
 10
-13.84584
 20
-15.02751
 30
0.0
 10
-13.85247
 20
-15.0201
 30
0.0
 10
-13.86065
 20
-15.01424
 30
0.0
 10
-13.87039
 20
-15.00994
 30
0.0
 10
-13.87039
 20
-15.00994
 30
0.0
 10
-13.88013
 20
-15.00563
 30
0.0
 10
-13.89177
 20
-15.00338
 30
0.0
 10
-13.90517
 20
-15.00331
 30
0.0
 10
-13.90517
 20
-15.00331
 30
0.0
 10
-13.9219
 20
-15.00338
 30
0.0
 10
-13.93671
 20
-15.00613
 30
0.0
 10
-13.94962
 20
-15.01156
 30
0.0
 10
-13.94962
 20
-15.01156
 30
0.0
 10
-13.96247
 20
-15.01699
 30
0.0
 10
-13.97333
 20
-15.02475
 30
0.0
 10
-13.98208
 20
-15.03491
 30
0.0
 10
-13.98208
 20
-15.03491
 30
0.0
 10
-13.9909
 20
-15.045
 30
0.0
 10
-13.9976
 20
-15.05721
 30
0.0
 10
-14.00212
 20
-15.07132
 30
0.0
 10
-14.00212
 20
-15.07132
 30
0.0
 10
-14.00663
 20
-15.0855
 30
0.0
 10
-14.00889
 20
-15.10138
 30
0.0
 10
-14.00889
 20
-15.11887
 30
0.0
 10
-14.00889
 20
-15.11887
 30
0.0
 10
-14.00882
 20
-15.13644
 30
0.0
 10
-14.006
 20
-15.15196
 30
0.0
 10
-14.00064
 20
-15.1653
 30
0.0
 10
-14.00064
 20
-15.1653
 30
0.0
 10
-13.9952
 20
-15.17863
 30
0.0
 10
-13.98772
 20
-15.18985
 30
0.0
 10
-13.97813
 20
-15.19874
 30
0.0
 10
-13.97813
 20
-15.19874
 30
0.0
 10
-13.9686
 20
-15.2077
 30
0.0
 10
-13.9576
 20
-15.21441
 30
0.0
 10
-13.94511
 20
-15.21878
 30
0.0
 10
-13.94511
 20
-15.21878
 30
0.0
 10
-13.93269
 20
-15.22315
 30
0.0
 10
-13.91936
 20
-15.22513
 30
0.0
 10
-13.90517
 20
-15.22471
 30
0.0
 10
-13.90517
 20
-15.22471
 30
0.0
 10
-13.89382
 20
-15.22428
 30
0.0
 10
-13.88373
 20
-15.22245
 30
0.0
 10
-13.87491
 20
-15.2192
 30
0.0
 10
-13.87491
 20
-15.2192
 30
0.0
 10
-13.86609
 20
-15.21589
 30
0.0
 10
-13.8584
 20
-15.2118
 30
0.0
 10
-13.85183
 20
-15.20686
 30
0.0
 10
-13.85183
 20
-15.20686
 30
0.0
 10
-13.84534
 20
-15.20192
 30
0.0
 10
-13.83991
 20
-15.1967
 30
0.0
 10
-13.83554
 20
-15.19119
 30
0.0
 10
-13.83554
 20
-15.19119
 30
0.0
 10
-13.83116
 20
-15.18569
 30
0.0
 10
-13.82778
 20
-15.18047
 30
0.0
 10
-13.82538
 20
-15.17553
 30
0.0
 10
-13.82538
 20
-15.17553
 30
0.0
 10
-13.82298
 20
-15.17066
 30
0.0
 10
-13.8215
 20
-15.16657
 30
0.0
 10
-13.82093
 20
-15.16332
 30
0.0
  0
SPLINE
  5
71
330
1F
100
AcDbEntity
  8
Layer 1
 62
    30
370
     9
100
AcDbSpline
210
0.0
220
0.0
230
1.0
 70
    27
 71
     3
 72
    12
 73
     8
 74
     0
 42
0.0000000001
 43
0.0000000001
 40
0.0
 40
0.0
 40
0.0
 40
0.0
 40
0.5
 40
0.5
 40
0.5
 40
0.5
 40
1.0
 40
1.0
 40
1.0
 40
1.0
 10
-14.18923
 20
-15.2264
 30
0.0
 10
-14.18923
 20
-15.2264
 30
0.0
 10
-14.18923
 20
-15.00923
 30
0.0
 10
-14.18923
 20
-15.00923
 30
0.0
 10
-14.18923
 20
-15.00923
 30
0.0
 10
-14.18923
 20
-15.00923
 30
0.0
 10
-14.18923
 20
-15.2264
 30
0.0
 10
-14.18923
 20
-15.2264
 30
0.0
  0
SPLINE
  5
72
330
1F
100
AcDbEntity
  8
Layer 1
 62
    30
370
     9
100
AcDbSpline
210
0.0
220
0.0
230
1.0
 70
     8
 71
     3
 72
    24
 73
    20
 74
     0
 42
0.0000000001
 43
0.0000000001
 40
0.0
 40
0.0
 40
0.0
 40
0.0
 40
0.2
 40
0.2
 40
0.2
 40
0.2
 40
0.4
 40
0.4
 40
0.4
 40
0.4
 40
0.6000000000000001
 40
0.6000000000000001
 40
0.6000000000000001
 40
0.6000000000000001
 40
0.8
 40
0.8
 40
0.8
 40
0.8
 40
1.0
 40
1.0
 40
1.0
 40
1.0
 10
-14.18923
 20
-15.11549
 30
0.0
 10
-14.18944
 20
-15.10568
 30
0.0
 10
-14.18796
 20
-15.09573
 30
0.0
 10
-14.18486
 20
-15.08571
 30
0.0
 10
-14.18486
 20
-15.08571
 30
0.0
 10
-14.18175
 20
-15.07569
 30
0.0
 10
-14.17745
 20
-15.0661
 30
0.0
 10
-14.17194
 20
-15.05693
 30
0.0
 10
-14.17194
 20
-15.05693
 30
0.0
 10
-14.16637
 20
-15.04775
 30
0.0
 10
-14.16002
 20
-15.03964
 30
0.0
 10
-14.15282
 20
-15.03244
 30
0.0
 10
-14.15282
 20
-15.03244
 30
0.0
 10
-14.1457
 20
-15.02525
 30
0.0
 10
-14.13808
 20
-15.0196
 30
0.0
 10
-14.13011
 20
-15.01544
 30
0.0
 10
-14.13011
 20
-15.01544
 30
0.0
 10
-14.12213
 20
-15.01128
 30
0.0
 10
-14.11423
 20
-15.00923
 30
0.0
 10
-14.10626
 20
-15.00923
 30
0.0
  0
SPLINE
  5
73
330
1F
100
AcDbEntity
  8
Layer 1
 62
    30
370
     9
100
AcDbSpline
210
0.0
220
0.0
230
1.0
 70
     8
 71
     3
 72
    84
 73
    80
 74
     0
 42
0.0000000001
 43
0.0000000001
 40
0.0
 40
0.0
 40
0.0
 40
0.0
 40
0.05
 40
0.05
 40
0.05
 40
0.05
 40
0.1
 40
0.1
 40
0.1
 40
0.1
 40
0.15
 40
0.15
 40
0.15
 40
0.15
 40
0.2
 40
0.2
 40
0.2
 40
0.2
 40
0.25
 40
0.25
 40
0.25
 40
0.25
 40
0.3
 40
0.3
 40
0.3
 40
0.3
 40
0.35
 40
0.35
 40
0.35
 40
0.35
 40
0.4
 40
0.4
 40
0.4
 40
0.4
 40
0.45
 40
0.45
 40
0.45
 40
0.45
 40
0.4999999999999999
 40
0.4999999999999999
 40
0.4999999999999999
 40
0.4999999999999999
 40
0.5499999999999999
 40
0.5499999999999999
 40
0.5499999999999999
 40
0.5499999999999999
 40
0.6
 40
0.6
 40
0.6
 40
0.6
 40
0.65
 40
0.65
 40
0.65
 40
0.65
 40
0.7000000000000001
 40
0.7000000000000001
 40
0.7000000000000001
 40
0.7000000000000001
 40
0.7500000000000001
 40
0.7500000000000001
 40
0.7500000000000001
 40
0.7500000000000001
 40
0.8000000000000002
 40
0.8000000000000002
 40
0.8000000000000002
 40
0.8000000000000002
 40
0.8500000000000002
 40
0.8500000000000002
 40
0.8500000000000002
 40
0.8500000000000002
 40
0.9000000000000002
 40
0.9000000000000002
 40
0.9000000000000002
 40
0.9000000000000002
 40
0.9500000000000003
 40
0.9500000000000003
 40
0.9500000000000003
 40
0.9500000000000003
 40
1.0
 40
1.0
 40
1.0
 40
1.0
 10
-14.55668
 20
-15.06934
 30
0.0
 10
-14.55668
 20
-15.06934
 30
0.0
 10
-14.43942
 20
-15.06934
 30
0.0
 10
-14.43942
 20
-15.06934
 30
0.0
 10
-14.43942
 20
-15.06934
 30
0.0
 10
-14.42418
 20
-15.06934
 30
0.0
 10
-14.41118
 20
-15.06712
 30
0.0
 10
-14.40026
 20
-15.06299
 30
0.0
 10
-14.40026
 20
-15.06299
 30
0.0
 10
-14.38941
 20
-15.0589
 30
0.0
 10
-14.38058
 20
-15.05333
 30
0.0
 10
-14.37373
 20
-15.04634
 30
0.0
 10
-14.37373
 20
-15.04634
 30
0.0
 10
-14.36689
 20
-15.03936
 30
0.0
 10
-14.36195
 20
-15.03146
 30
0.0
 10
-14.35884
 20
-15.02271
 30
0.0
 10
-14.35884
 20
-15.02271
 30
0.0
 10
-14.35581
 20
-15.01403
 30
0.0
 10
-14.3544
 20
-15.005
 30
0.0
 10
-14.35475
 20
-14.99569
 30
0.0
 10
-14.35475
 20
-14.99569
 30
0.0
 10
-14.35518
 20
-14.98637
 30
0.0
 10
-14.35715
 20
-14.97734
 30
0.0
 10
-14.36068
 20
-14.96852
 30
0.0
 10
-14.36068
 20
-14.96852
 30
0.0
 10
-14.36414
 20
-14.9597
 30
0.0
 10
-14.36936
 20
-14.95173
 30
0.0
 10
-14.3762
 20
-14.9446
 30
0.0
 10
-14.3762
 20
-14.9446
 30
0.0
 10
-14.38304
 20
-14.93748
 30
0.0
 10
-14.39158
 20
-14.93183
 30
0.0
 10
-14.40195
 20
-14.92767
 30
0.0
 10
-14.40195
 20
-14.92767
 30
0.0
 10
-14.41233
 20
-14.92344
 30
0.0
 10
-14.42453
 20
-14.92125
 30
0.0
 10
-14.43857
 20
-14.92118
 30
0.0
 10
-14.43857
 20
-14.92118
 30
0.0
 10
-14.43857
 20
-14.92118
 30
0.0
 10
-14.55668
 20
-14.92118
 30
0.0
 10
-14.55668
 20
-14.92118
 30
0.0
 10
-14.55668
 20
-14.92118
 30
0.0
 10
-14.55668
 20
-14.92118
 30
0.0
 10
-14.55668
 20
-15.2264
 30
0.0
 10
-14.55668
 20
-15.2264
 30
0.0
 10
-14.55668
 20
-15.2264
 30
0.0
 10
-14.55668
 20
-15.2264
 30
0.0
 10
-14.42672
 20
-15.2264
 30
0.0
 10
-14.42672
 20
-15.2264
 30
0.0
 10
-14.42672
 20
-15.2264
 30
0.0
 10
-14.41458
 20
-15.2264
 30
0.0
 10
-14.40329
 20
-15.22464
 30
0.0
 10
-14.39285
 20
-15.22118
 30
0.0
 10
-14.39285
 20
-15.22118
 30
0.0
 10
-14.38241
 20
-15.21765
 30
0.0
 10
-14.37331
 20
-15.21264
 30
0.0
 10
-14.36541
 20
-15.20594
 30
0.0
 10
-14.36541
 20
-15.20594
 30
0.0
 10
-14.35757
 20
-15.19931
 30
0.0
 10
-14.35144
 20
-15.19126
 30
0.0
 10
-14.34706
 20
-15.18174
 30
0.0
 10
-14.34706
 20
-15.18174
 30
0.0
 10
-14.34269
 20
-15.17221
 30
0.0
 10
-14.34043
 20
-15.16142
 30
0.0
 10
-14.34036
 20
-15.14935
 30
0.0
 10
-14.34036
 20
-15.14935
 30
0.0
 10
-14.34064
 20
-15.13722
 30
0.0
 10
-14.34318
 20
-15.12628
 30
0.0
 10
-14.34805
 20
-15.11648
 30
0.0
 10
-14.34805
 20
-15.11648
 30
0.0
 10
-14.35292
 20
-15.10667
 30
0.0
 10
-14.35969
 20
-15.09827
 30
0.0
 10
-14.36844
 20
-15.09122
 30
0.0
 10
-14.36844
 20
-15.09122
 30
0.0
 10
-14.37719
 20
-15.08423
 30
0.0
 10
-14.38766
 20
-15.07877
 30
0.0
 10
-14.39963
 20
-15.07506
 30
0.0
 10
-14.39963
 20
-15.07506
 30
0.0
 10
-14.41159
 20
-15.07135
 30
0.0
 10
-14.42488
 20
-15.06942
 30
0.0
 10
-14.43942
 20
-15.06934
 30
0.0
  0
ELLIPSE
  5
74
330
1F
100
AcDbEntity
  8
Layer 1
370
     9
100
AcDbEllipse
 10
-5.55
 20
-10.625
 30
0.0
 11
0.0
 21
0.15
 31
0.0
210
0.0
220
0.0
230
1.0
 40
1.0
 41
0.0
 42
6.283185307179586
  0
ELLIPSE
  5
75
330
1F
100
AcDbEntity
  8
Layer 1
370
     9
100
AcDbEllipse
 10
-10.5
 20
-10.625
 30
0.0
 11
0.0
 21
0.15
 31
0.0
210
0.0
220
0.0
230
1.0
 40
1.0
 41
0.0
 42
6.283185307179586
  0
ELLIPSE
  5
76
330
1F
100
AcDbEntity
  8
Layer 1
370
     9
100
AcDbEllipse
 10
-15.45
 20
-10.625
 30
0.0
 11
0.0
 21
0.15
 31
0.0
210
0.0
220
0.0
230
1.0
 40
1.0
 41
0.0
 42
6.283185307179586
  0
SPLINE
  5
77
330
1F
100
AcDbEntity
  8
Layer 1
 62
   186
370
     9
100
AcDbSpline
210
0.0
220
0.0
230
1.0
 70
    11
 71
     3
 72
    36
 73
    32
 74
     0
 42
0.0000000001
 43
0.0000000001
 40
0.0
 40
0.0
 40
0.0
 40
0.0
 40
0.125
 40
0.125
 40
0.125
 40
0.125
 40
0.25
 40
0.25
 40
0.25
 40
0.25
 40
0.375
 40
0.375
 40
0.375
 40
0.375
 40
0.5
 40
0.5
 40
0.5
 40
0.5
 40
0.625
 40
0.625
 40
0.625
 40
0.625
 40
0.75
 40
0.75
 40
0.75
 40
0.75
 40
0.875
 40
0.875
 40
0.875
 40
0.875
 40
1.0
 40
1.0
 40
1.0
 40
1.0
 10
-8.48494
 20
-10.3517
 30
0.0
 10
-8.69194
 20
-10.3517
 30
0.0
 10
-8.85994
 20
-10.5197
 30
0.0
 10
-8.85994
 20
-10.7267
 30
0.0
 10
-8.85994
 20
-10.7267
 30
0.0
 10
-8.85994
 20
-10.7267
 30
0.0
 10
-8.85994
 20
-11.4767
 30
0.0
 10
-8.85994
 20
-11.4767
 30
0.0
 10
-8.85994
 20
-11.4767
 30
0.0
 10
-8.85994
 20
-11.6837
 30
0.0
 10
-8.69194
 20
-11.8517
 30
0.0
 10
-8.48494
 20
-11.8517
 30
0.0
 10
-8.48494
 20
-11.8517
 30
0.0
 10
-8.48494
 20
-11.8517
 30
0.0
 10
-6.60994
 20
-11.8517
 30
0.0
 10
-6.60994
 20
-11.8517
 30
0.0
 10
-6.60994
 20
-11.8517
 30
0.0
 10
-6.40294
 20
-11.8517
 30
0.0
 10
-6.23494
 20
-11.6837
 30
0.0
 10
-6.23494
 20
-11.4767
 30
0.0
 10
-6.23494
 20
-11.4767
 30
0.0
 10
-6.23494
 20
-11.4767
 30
0.0
 10
-6.23494
 20
-10.7267
 30
0.0
 10
-6.23494
 20
-10.7267
 30
0.0
 10
-6.23494
 20
-10.7267
 30
0.0
 10
-6.23494
 20
-10.5197
 30
0.0
 10
-6.40294
 20
-10.3517
 30
0.0
 10
-6.60994
 20
-10.3517
 30
0.0
 10
-6.60994
 20
-10.3517
 30
0.0
 10
-6.60994
 20
-10.3517
 30
0.0
 10
-8.48494
 20
-10.3517
 30
0.0
 10
-8.48494
 20
-10.3517
 30
0.0
  0
SPLINE
  5
78
330
1F
100
AcDbEntity
  8
Layer 1
 62
   186
370
     9
100
AcDbSpline
210
0.0
220
0.0
230
1.0
 70
    11
 71
     3
 72
    20
 73
    16
 74
     0
 42
0.0000000001
 43
0.0000000001
 40
0.0
 40
0.0
 40
0.0
 40
0.0
 40
0.25
 40
0.25
 40
0.25
 40
0.25
 40
0.5
 40
0.5
 40
0.5
 40
0.5
 40
0.75
 40
0.75
 40
0.75
 40
0.75
 40
1.0
 40
1.0
 40
1.0
 40
1.0
 10
-6.98494
 20
-10.72647
 30
0.0
 10
-6.77794
 20
-10.72647
 30
0.0
 10
-6.60994
 20
-10.89446
 30
0.0
 10
-6.60994
 20
-11.10146
 30
0.0
 10
-6.60994
 20
-11.10146
 30
0.0
 10
-6.60994
 20
-11.30846
 30
0.0
 10
-6.77794
 20
-11.47647
 30
0.0
 10
-6.98494
 20
-11.47647
 30
0.0
 10
-6.98494
 20
-11.47647
 30
0.0
 10
-7.19194
 20
-11.47647
 30
0.0
 10
-7.35994
 20
-11.30846
 30
0.0
 10
-7.35994
 20
-11.10146
 30
0.0
 10
-7.35994
 20
-11.10146
 30
0.0
 10
-7.35994
 20
-10.89446
 30
0.0
 10
-7.19194
 20
-10.72647
 30
0.0
 10
-6.98494
 20
-10.72647
 30
0.0
  0
SPLINE
  5
79
330
1F
100
AcDbEntity
  8
Layer 1
 62
   186
370
     9
100
AcDbSpline
210
0.0
220
0.0
230
1.0
 70
    11
 71
     3
 72
    20
 73
    16
 74
     0
 42
0.0000000001
 43
0.0000000001
 40
0.0
 40
0.0
 40
0.0
 40
0.0
 40
0.25
 40
0.25
 40
0.25
 40
0.25
 40
0.5
 40
0.5
 40
0.5
 40
0.5
 40
0.75
 40
0.75
 40
0.75
 40
0.75
 40
1.0
 40
1.0
 40
1.0
 40
1.0
 10
-8.10994
 20
-10.72647
 30
0.0
 10
-7.90294
 20
-10.72647
 30
0.0
 10
-7.73494
 20
-10.89446
 30
0.0
 10
-7.73494
 20
-11.10146
 30
0.0
 10
-7.73494
 20
-11.10146
 30
0.0
 10
-7.73494
 20
-11.30846
 30
0.0
 10
-7.90294
 20
-11.47647
 30
0.0
 10
-8.10994
 20
-11.47647
 30
0.0
 10
-8.10994
 20
-11.47647
 30
0.0
 10
-8.31694
 20
-11.47647
 30
0.0
 10
-8.48494
 20
-11.30846
 30
0.0
 10
-8.48494
 20
-11.10146
 30
0.0
 10
-8.48494
 20
-11.10146
 30
0.0
 10
-8.48494
 20
-10.89446
 30
0.0
 10
-8.31694
 20
-10.72647
 30
0.0
 10
-8.10994
 20
-10.72647
 30
0.0
  0
SPLINE
  5
7A
330
1F
100
AcDbEntity
  8
Layer 1
 62
    30
370
     9
100
AcDbSpline
210
0.0
220
0.0
230
1.0
 70
    11
 71
     3
 72
    72
 73
    68
 74
     0
 42
0.0000000001
 43
0.0000000001
 40
0.0
 40
0.0
 40
0.0
 40
0.0
 40
0.0588235294117647
 40
0.0588235294117647
 40
0.0588235294117647
 40
0.0588235294117647
 40
0.1176470588235294
 40
0.1176470588235294
 40
0.1176470588235294
 40
0.1176470588235294
 40
0.1764705882352941
 40
0.1764705882352941
 40
0.1764705882352941
 40
0.1764705882352941
 40
0.2352941176470588
 40
0.2352941176470588
 40
0.2352941176470588
 40
0.2352941176470588
 40
0.2941176470588235
 40
0.2941176470588235
 40
0.2941176470588235
 40
0.2941176470588235
 40
0.3529411764705883
 40
0.3529411764705883
 40
0.3529411764705883
 40
0.3529411764705883
 40
0.411764705882353
 40
0.411764705882353
 40
0.411764705882353
 40
0.411764705882353
 40
0.4705882352941177
 40
0.4705882352941177
 40
0.4705882352941177
 40
0.4705882352941177
 40
0.5294117647058824
 40
0.5294117647058824
 40
0.5294117647058824
 40
0.5294117647058824
 40
0.5882352941176471
 40
0.5882352941176471
 40
0.5882352941176471
 40
0.5882352941176471
 40
0.6470588235294118
 40
0.6470588235294118
 40
0.6470588235294118
 40
0.6470588235294118
 40
0.7058823529411765
 40
0.7058823529411765
 40
0.7058823529411765
 40
0.7058823529411765
 40
0.7647058823529412
 40
0.7647058823529412
 40
0.7647058823529412
 40
0.7647058823529412
 40
0.823529411764706
 40
0.823529411764706
 40
0.823529411764706
 40
0.823529411764706
 40
0.8823529411764707
 40
0.8823529411764707
 40
0.8823529411764707
 40
0.8823529411764707
 40
0.9411764705882354
 40
0.9411764705882354
 40
0.9411764705882354
 40
0.9411764705882354
 40
1.0
 40
1.0
 40
1.0
 40
1.0
 10
-5.108
 20
-18.9115
 30
0.0
 10
-5.14868
 20
-18.9115
 30
0.0
 10
-5.26571
 20
-18.9115
 30
0.0
 10
-5.4382
 20
-18.9115
 30
0.0
 10
-5.4382
 20
-18.9115
 30
0.0
 10
-5.4382
 20
-18.9115
 30
0.0
 10
-5.4382
 20
-19.0893
 30
0.0
 10
-5.4382
 20
-19.0893
 30
0.0
 10
-5.4382
 20
-19.0893
 30
0.0
 10
-5.4382
 20
-19.0893
 30
0.0
 10
-6.33736
 20
-19.0893
 30
0.0
 10
-6.33736
 20
-19.0893
 30
0.0
 10
-6.33736
 20
-19.0893
 30
0.0
 10
-6.33736
 20
-19.0893
 30
0.0
 10
-6.33736
 20
-18.9115
 30
0.0
 10
-6.33736
 20
-18.9115
 30
0.0
 10
-6.33736
 20
-18.9115
 30
0.0
 10
-6.92991
 20
-18.9115
 30
0.0
 10
-7.6552
 20
-18.9115
 30
0.0
 10
-8.33126
 20
-18.9115
 30
0.0
 10
-8.33126
 20
-18.9115
 30
0.0
 10
-8.33126
 20
-18.9115
 30
0.0
 10
-8.33126
 20
-19.5465
 30
0.0
 10
-8.33126
 20
-19.5465
 30
0.0
 10
-8.33126
 20
-19.5465
 30
0.0
 10
-8.33126
 20
-19.5465
 30
0.0
 10
-9.49712
 20
-19.5465
 30
0.0
 10
-9.49712
 20
-19.5465
 30
0.0
 10
-9.49712
 20
-19.5465
 30
0.0
 10
-9.49712
 20
-19.5465
 30
0.0
 10
-9.49712
 20
-18.9115
 30
0.0
 10
-9.49712
 20
-18.9115
 30
0.0
 10
-9.49712
 20
-18.9115
 30
0.0
 10
-9.9996
 20
-18.9115
 30
0.0
 10
-10.36267
 20
-18.9115
 30
0.0
 10
-10.442
 20
-18.9115
 30
0.0
 10
-10.442
 20
-18.9115
 30
0.0
 10
-10.442
 20
-16.76266
 30
0.0
 10
-10.442
 20
-14.61128
 30
0.0
 10
-10.442
 20
-12.4599
 30
0.0
 10
-10.442
 20
-12.4599
 30
0.0
 10
-10.3912
 20
-12.4091
 30
0.0
 10
-10.3404
 20
-12.3583
 30
0.0
 10
-10.2896
 20
-12.3075
 30
0.0
 10
-10.2896
 20
-12.3075
 30
0.0
 10
-9.9086
 20
-12.3075
 30
0.0
 10
-9.5276
 20
-12.3075
 30
0.0
 10
-9.1466
 20
-12.3075
 30
0.0
 10
-9.1466
 20
-12.3075
 30
0.0
 10
-9.06278
 20
-12.22368
 30
0.0
 10
-8.97896
 20
-12.13986
 30
0.0
 10
-8.8926
 20
-12.0535
 30
0.0
 10
-8.8926
 20
-12.0535
 30
0.0
 10
-7.8004
 20
-12.0535
 30
0.0
 10
-6.7082
 20
-12.0535
 30
0.0
 10
-5.616
 20
-12.0535
 30
0.0
 10
-5.616
 20
-12.0535
 30
0.0
 10
-5.53218
 20
-12.13732
 30
0.0
 10
-5.44836
 20
-12.22114
 30
0.0
 10
-5.362
 20
-12.3075
 30
0.0
 10
-5.362
 20
-12.3075
 30
0.0
 10
-5.27818
 20
-12.3075
 30
0.0
 10
-5.19436
 20
-12.3075
 30
0.0
 10
-5.108
 20
-12.3075
 30
0.0
 10
-5.108
 20
-12.3075
 30
0.0
 10
-5.108
 20
-14.50714
 30
0.0
 10
-5.108
 20
-16.70932
 30
0.0
 10
-5.108
 20
-18.9115
 30
0.0
  0
SPLINE
  5
7B
330
1F
100
AcDbEntity
  8
Layer 1
 62
    30
370
     9
100
AcDbSpline
210
0.0
220
0.0
230
1.0
 70
    11
 71
     3
 72
    68
 73
    64
 74
     0
 42
0.0000000001
 43
0.0000000001
 40
0.0
 40
0.0
 40
0.0
 40
0.0
 40
0.0625
 40
0.0625
 40
0.0625
 40
0.0625
 40
0.125
 40
0.125
 40
0.125
 40
0.125
 40
0.1875
 40
0.1875
 40
0.1875
 40
0.1875
 40
0.25
 40
0.25
 40
0.25
 40
0.25
 40
0.3125
 40
0.3125
 40
0.3125
 40
0.3125
 40
0.375
 40
0.375
 40
0.375
 40
0.375
 40
0.4375
 40
0.4375
 40
0.4375
 40
0.4375
 40
0.5
 40
0.5
 40
0.5
 40
0.5
 40
0.5625
 40
0.5625
 40
0.5625
 40
0.5625
 40
0.625
 40
0.625
 40
0.625
 40
0.625
 40
0.6875
 40
0.6875
 40
0.6875
 40
0.6875
 40
0.75
 40
0.75
 40
0.75
 40
0.75
 40
0.8125
 40
0.8125
 40
0.8125
 40
0.8125
 40
0.875
 40
0.875
 40
0.875
 40
0.875
 40
0.9375
 40
0.9375
 40
0.9375
 40
0.9375
 40
1.0
 40
1.0
 40
1.0
 40
1.0
 10
-6.88368
 20
-15.95289
 30
0.0
 10
-6.87035
 20
-15.95296
 30
0.0
 10
-6.85793
 20
-15.95127
 30
0.0
 10
-6.84636
 20
-15.94767
 30
0.0
 10
-6.84636
 20
-15.94767
 30
0.0
 10
-6.83479
 20
-15.94407
 30
0.0
 10
-6.82456
 20
-15.93807
 30
0.0
 10
-6.81581
 20
-15.92968
 30
0.0
 10
-6.81581
 20
-15.92968
 30
0.0
 10
-6.80699
 20
-15.92128
 30
0.0
 10
-6.80015
 20
-15.90992
 30
0.0
 10
-6.79514
 20
-15.89553
 30
0.0
 10
-6.79514
 20
-15.89553
 30
0.0
 10
-6.7902
 20
-15.88121
 30
0.0
 10
-6.78766
 20
-15.86336
 30
0.0
 10
-6.78759
 20
-15.84198
 30
0.0
 10
-6.78759
 20
-15.84198
 30
0.0
 10
-6.78766
 20
-15.82067
 30
0.0
 10
-6.7902
 20
-15.80289
 30
0.0
 10
-6.79514
 20
-15.78864
 30
0.0
 10
-6.79514
 20
-15.78864
 30
0.0
 10
-6.80015
 20
-15.77439
 30
0.0
 10
-6.80699
 20
-15.76303
 30
0.0
 10
-6.81581
 20
-15.75463
 30
0.0
 10
-6.81581
 20
-15.75463
 30
0.0
 10
-6.82456
 20
-15.7463
 30
0.0
 10
-6.83479
 20
-15.74031
 30
0.0
 10
-6.84636
 20
-15.73671
 30
0.0
 10
-6.84636
 20
-15.73671
 30
0.0
 10
-6.85793
 20
-15.73311
 30
0.0
 10
-6.87035
 20
-15.73142
 30
0.0
 10
-6.88368
 20
-15.73149
 30
0.0
 10
-6.88368
 20
-15.73149
 30
0.0
 10
-6.89688
 20
-15.73142
 30
0.0
 10
-6.9093
 20
-15.73311
 30
0.0
 10
-6.92087
 20
-15.73671
 30
0.0
 10
-6.92087
 20
-15.73671
 30
0.0
 10
-6.93244
 20
-15.74031
 30
0.0
 10
-6.9426
 20
-15.7463
 30
0.0
 10
-6.95142
 20
-15.75463
 30
0.0
 10
-6.95142
 20
-15.75463
 30
0.0
 10
-6.96024
 20
-15.76303
 30
0.0
 10
-6.96715
 20
-15.77439
 30
0.0
 10
-6.97216
 20
-15.78864
 30
0.0
 10
-6.97216
 20
-15.78864
 30
0.0
 10
-6.97717
 20
-15.80289
 30
0.0
 10
-6.97971
 20
-15.82067
 30
0.0
 10
-6.97978
 20
-15.84198
 30
0.0
 10
-6.97978
 20
-15.84198
 30
0.0
 10
-6.97971
 20
-15.86336
 30
0.0
 10
-6.97717
 20
-15.88121
 30
0.0
 10
-6.97216
 20
-15.89553
 30
0.0
 10
-6.97216
 20
-15.89553
 30
0.0
 10
-6.96715
 20
-15.90992
 30
0.0
 10
-6.96024
 20
-15.92128
 30
0.0
 10
-6.95142
 20
-15.92968
 30
0.0
 10
-6.95142
 20
-15.92968
 30
0.0
 10
-6.9426
 20
-15.93807
 30
0.0
 10
-6.93244
 20
-15.94407
 30
0.0
 10
-6.92087
 20
-15.94767
 30
0.0
 10
-6.92087
 20
-15.94767
 30
0.0
 10
-6.9093
 20
-15.95127
 30
0.0
 10
-6.89688
 20
-15.95296
 30
0.0
 10
-6.88368
 20
-15.95289
 30
0.0
  0
SPLINE
  5
7C
330
1F
100
AcDbEntity
  8
Layer 1
 62
    30
370
     9
100
AcDbSpline
210
0.0
220
0.0
230
1.0
 70
    27
 71
     3
 72
    12
 73
     8
 74
     0
 42
0.0000000001
 43
0.0000000001
 40
0.0
 40
0.0
 40
0.0
 40
0.0
 40
0.5
 40
0.5
 40
0.5
 40
0.5
 40
1.0
 40
1.0
 40
1.0
 40
1.0
 10
-7.25791
 20
-15.95289
 30
0.0
 10
-7.25791
 20
-15.95289
 30
0.0
 10
-7.25791
 20
-15.73572
 30
0.0
 10
-7.25791
 20
-15.73572
 30
0.0
 10
-7.25791
 20
-15.73572
 30
0.0
 10
-7.25791
 20
-15.73572
 30
0.0
 10
-7.25791
 20
-15.95289
 30
0.0
 10
-7.25791
 20
-15.95289
 30
0.0
  0
SPLINE
  5
7D
330
1F
100
AcDbEntity
  8
Layer 1
 62
    30
370
     9
100
AcDbSpline
210
0.0
220
0.0
230
1.0
 70
     8
 71
     3
 72
    76
 73
    72
 74
     0
 42
0.0000000001
 43
0.0000000001
 40
0.0
 40
0.0
 40
0.0
 40
0.0
 40
0.0555555555555556
 40
0.0555555555555556
 40
0.0555555555555556
 40
0.0555555555555556
 40
0.1111111111111111
 40
0.1111111111111111
 40
0.1111111111111111
 40
0.1111111111111111
 40
0.1666666666666667
 40
0.1666666666666667
 40
0.1666666666666667
 40
0.1666666666666667
 40
0.2222222222222222
 40
0.2222222222222222
 40
0.2222222222222222
 40
0.2222222222222222
 40
0.2777777777777778
 40
0.2777777777777778
 40
0.2777777777777778
 40
0.2777777777777778
 40
0.3333333333333334
 40
0.3333333333333334
 40
0.3333333333333334
 40
0.3333333333333334
 40
0.388888888888889
 40
0.388888888888889
 40
0.388888888888889
 40
0.388888888888889
 40
0.4444444444444445
 40
0.4444444444444445
 40
0.4444444444444445
 40
0.4444444444444445
 40
0.5000000000000001
 40
0.5000000000000001
 40
0.5000000000000001
 40
0.5000000000000001
 40
0.5555555555555557
 40
0.5555555555555557
 40
0.5555555555555557
 40
0.5555555555555557
 40
0.6111111111111113
 40
0.6111111111111113
 40
0.6111111111111113
 40
0.6111111111111113
 40
0.6666666666666669
 40
0.6666666666666669
 40
0.6666666666666669
 40
0.6666666666666669
 40
0.7222222222222224
 40
0.7222222222222224
 40
0.7222222222222224
 40
0.7222222222222224
 40
0.777777777777778
 40
0.777777777777778
 40
0.777777777777778
 40
0.777777777777778
 40
0.8333333333333336
 40
0.8333333333333336
 40
0.8333333333333336
 40
0.8333333333333336
 40
0.8888888888888892
 40
0.8888888888888892
 40
0.8888888888888892
 40
0.8888888888888892
 40
0.9444444444444448
 40
0.9444444444444448
 40
0.9444444444444448
 40
0.9444444444444448
 40
1.0
 40
1.0
 40
1.0
 40
1.0
 10
-7.10213
 20
-15.95289
 30
0.0
 10
-7.10213
 20
-15.95282
 30
0.0
 10
-7.10213
 20
-15.95077
 30
0.0
 10
-7.10213
 20
-15.94675
 30
0.0
 10
-7.10213
 20
-15.94675
 30
0.0
 10
-7.10213
 20
-15.9428
 30
0.0
 10
-7.10213
 20
-15.93737
 30
0.0
 10
-7.10213
 20
-15.93052
 30
0.0
 10
-7.10213
 20
-15.93052
 30
0.0
 10
-7.10213
 20
-15.92361
 30
0.0
 10
-7.10213
 20
-15.91585
 30
0.0
 10
-7.10213
 20
-15.9071
 30
0.0
 10
-7.10213
 20
-15.9071
 30
0.0
 10
-7.10213
 20
-15.89842
 30
0.0
 10
-7.10213
 20
-15.88932
 30
0.0
 10
-7.10213
 20
-15.87972
 30
0.0
 10
-7.10213
 20
-15.87972
 30
0.0
 10
-7.10213
 20
-15.8702
 30
0.0
 10
-7.10213
 20
-15.86082
 30
0.0
 10
-7.10213
 20
-15.8515
 30
0.0
 10
-7.10213
 20
-15.8515
 30
0.0
 10
-7.10213
 20
-15.84219
 30
0.0
 10
-7.10213
 20
-15.83344
 30
0.0
 10
-7.10213
 20
-15.8254
 30
0.0
 10
-7.10213
 20
-15.8254
 30
0.0
 10
-7.10213
 20
-15.81728
 30
0.0
 10
-7.10213
 20
-15.81037
 30
0.0
 10
-7.10213
 20
-15.80451
 30
0.0
 10
-7.10213
 20
-15.80451
 30
0.0
 10
-7.10213
 20
-15.79873
 30
0.0
 10
-7.10213
 20
-15.79456
 30
0.0
 10
-7.10213
 20
-15.79202
 30
0.0
 10
-7.10213
 20
-15.79202
 30
0.0
 10
-7.10213
 20
-15.78807
 30
0.0
 10
-7.1029
 20
-15.78363
 30
0.0
 10
-7.10459
 20
-15.77876
 30
0.0
 10
-7.10459
 20
-15.77876
 30
0.0
 10
-7.10622
 20
-15.77382
 30
0.0
 10
-7.10883
 20
-15.76888
 30
0.0
 10
-7.11243
 20
-15.76394
 30
0.0
 10
-7.11243
 20
-15.76394
 30
0.0
 10
-7.11602
 20
-15.75893
 30
0.0
 10
-7.12061
 20
-15.75435
 30
0.0
 10
-7.12633
 20
-15.75011
 30
0.0
 10
-7.12633
 20
-15.75011
 30
0.0
 10
-7.13211
 20
-15.74588
 30
0.0
 10
-7.13903
 20
-15.74249
 30
0.0
 10
-7.14707
 20
-15.73988
 30
0.0
 10
-7.14707
 20
-15.73988
 30
0.0
 10
-7.15518
 20
-15.73727
 30
0.0
 10
-7.16464
 20
-15.73586
 30
0.0
 10
-7.17536
 20
-15.73572
 30
0.0
 10
-7.17536
 20
-15.73572
 30
0.0
 10
-7.18623
 20
-15.73572
 30
0.0
 10
-7.19603
 20
-15.7372
 30
0.0
 10
-7.20478
 20
-15.74017
 30
0.0
 10
-7.20478
 20
-15.74017
 30
0.0
 10
-7.21353
 20
-15.7432
 30
0.0
 10
-7.22122
 20
-15.74736
 30
0.0
 10
-7.22785
 20
-15.75265
 30
0.0
 10
-7.22785
 20
-15.75265
 30
0.0
 10
-7.23449
 20
-15.75795
 30
0.0
 10
-7.23999
 20
-15.76401
 30
0.0
 10
-7.24443
 20
-15.77093
 30
0.0
 10
-7.24443
 20
-15.77093
 30
0.0
 10
-7.24895
 20
-15.77777
 30
0.0
 10
-7.25227
 20
-15.78504
 30
0.0
 10
-7.25452
 20
-15.7928
 30
0.0
 10
-7.25452
 20
-15.7928
 30
0.0
 10
-7.25678
 20
-15.80049
 30
0.0
 10
-7.25791
 20
-15.80832
 30
0.0
 10
-7.25791
 20
-15.81615
 30
0.0
  0
SPLINE
  5
7E
330
1F
100
AcDbEntity
  8
Layer 1
 62
    30
370
     9
100
AcDbSpline
210
0.0
220
0.0
230
1.0
 70
    27
 71
     3
 72
    12
 73
     8
 74
     0
 42
0.0000000001
 43
0.0000000001
 40
0.0
 40
0.0
 40
0.0
 40
0.0
 40
0.5
 40
0.5
 40
0.5
 40
0.5
 40
1.0
 40
1.0
 40
1.0
 40
1.0
 10
-7.4446
 20
-15.65487
 30
0.0
 10
-7.4446
 20
-15.65487
 30
0.0
 10
-7.4446
 20
-15.64725
 30
0.0
 10
-7.4446
 20
-15.64725
 30
0.0
 10
-7.4446
 20
-15.64725
 30
0.0
 10
-7.4446
 20
-15.64725
 30
0.0
 10
-7.4446
 20
-15.65487
 30
0.0
 10
-7.4446
 20
-15.65487
 30
0.0
  0
SPLINE
  5
7F
330
1F
100
AcDbEntity
  8
Layer 1
 62
    30
370
     9
100
AcDbSpline
210
0.0
220
0.0
230
1.0
 70
    24
 71
     3
 72
     8
 73
     4
 74
     0
 42
0.0000000001
 43
0.0000000001
 40
0.0
 40
0.0
 40
0.0
 40
0.0
 40
1.0
 40
1.0
 40
1.0
 40
1.0
 10
-7.4446
 20
-15.95247
 30
0.0
 10
-7.4446
 20
-15.95247
 30
0.0
 10
-7.4446
 20
-15.7353
 30
0.0
 10
-7.4446
 20
-15.7353
 30
0.0
  0
SPLINE
  5
80
330
1F
100
AcDbEntity
  8
Layer 1
 62
    30
370
     9
100
AcDbSpline
210
0.0
220
0.0
230
1.0
 70
    27
 71
     3
 72
    12
 73
     8
 74
     0
 42
0.0000000001
 43
0.0000000001
 40
0.0
 40
0.0
 40
0.0
 40
0.0
 40
0.5
 40
0.5
 40
0.5
 40
0.5
 40
1.0
 40
1.0
 40
1.0
 40
1.0
 10
-7.63848
 20
-15.73488
 30
0.0
 10
-7.63848
 20
-15.73488
 30
0.0
 10
-7.63848
 20
-15.95247
 30
0.0
 10
-7.63848
 20
-15.95247
 30
0.0
 10
-7.63848
 20
-15.95247
 30
0.0
 10
-7.63848
 20
-15.95247
 30
0.0
 10
-7.63848
 20
-15.73488
 30
0.0
 10
-7.63848
 20
-15.73488
 30
0.0
  0
SPLINE
  5
81
330
1F
100
AcDbEntity
  8
Layer 1
 62
    30
370
     9
100
AcDbSpline
210
0.0
220
0.0
230
1.0
 70
     8
 71
     3
 72
    76
 73
    72
 74
     0
 42
0.0000000001
 43
0.0000000001
 40
0.0
 40
0.0
 40
0.0
 40
0.0
 40
0.0555555555555556
 40
0.0555555555555556
 40
0.0555555555555556
 40
0.0555555555555556
 40
0.1111111111111111
 40
0.1111111111111111
 40
0.1111111111111111
 40
0.1111111111111111
 40
0.1666666666666667
 40
0.1666666666666667
 40
0.1666666666666667
 40
0.1666666666666667
 40
0.2222222222222222
 40
0.2222222222222222
 40
0.2222222222222222
 40
0.2222222222222222
 40
0.2777777777777778
 40
0.2777777777777778
 40
0.2777777777777778
 40
0.2777777777777778
 40
0.3333333333333334
 40
0.3333333333333334
 40
0.3333333333333334
 40
0.3333333333333334
 40
0.388888888888889
 40
0.388888888888889
 40
0.388888888888889
 40
0.388888888888889
 40
0.4444444444444445
 40
0.4444444444444445
 40
0.4444444444444445
 40
0.4444444444444445
 40
0.5000000000000001
 40
0.5000000000000001
 40
0.5000000000000001
 40
0.5000000000000001
 40
0.5555555555555557
 40
0.5555555555555557
 40
0.5555555555555557
 40
0.5555555555555557
 40
0.6111111111111113
 40
0.6111111111111113
 40
0.6111111111111113
 40
0.6111111111111113
 40
0.6666666666666669
 40
0.6666666666666669
 40
0.6666666666666669
 40
0.6666666666666669
 40
0.7222222222222224
 40
0.7222222222222224
 40
0.7222222222222224
 40
0.7222222222222224
 40
0.777777777777778
 40
0.777777777777778
 40
0.777777777777778
 40
0.777777777777778
 40
0.8333333333333336
 40
0.8333333333333336
 40
0.8333333333333336
 40
0.8333333333333336
 40
0.8888888888888892
 40
0.8888888888888892
 40
0.8888888888888892
 40
0.8888888888888892
 40
0.9444444444444448
 40
0.9444444444444448
 40
0.9444444444444448
 40
0.9444444444444448
 40
1.0
 40
1.0
 40
1.0
 40
1.0
 10
-7.79469
 20
-15.73488
 30
0.0
 10
-7.79469
 20
-15.73495
 30
0.0
 10
-7.79469
 20
-15.73699
 30
0.0
 10
-7.79469
 20
-15.74101
 30
0.0
 10
-7.79469
 20
-15.74101
 30
0.0
 10
-7.79469
 20
-15.74503
 30
0.0
 10
-7.79469
 20
-15.75047
 30
0.0
 10
-7.79469
 20
-15.75731
 30
0.0
 10
-7.79469
 20
-15.75731
 30
0.0
 10
-7.79469
 20
-15.76423
 30
0.0
 10
-7.79469
 20
-15.77206
 30
0.0
 10
-7.79469
 20
-15.78081
 30
0.0
 10
-7.79469
 20
-15.78081
 30
0.0
 10
-7.79469
 20
-15.78948
 30
0.0
 10
-7.79469
 20
-15.79866
 30
0.0
 10
-7.79469
 20
-15.80818
 30
0.0
 10
-7.79469
 20
-15.80818
 30
0.0
 10
-7.79469
 20
-15.81778
 30
0.0
 10
-7.79469
 20
-15.82723
 30
0.0
 10
-7.79469
 20
-15.83654
 30
0.0
 10
-7.79469
 20
-15.83654
 30
0.0
 10
-7.79469
 20
-15.84593
 30
0.0
 10
-7.79469
 20
-15.85468
 30
0.0
 10
-7.79469
 20
-15.86272
 30
0.0
 10
-7.79469
 20
-15.86272
 30
0.0
 10
-7.79469
 20
-15.87083
 30
0.0
 10
-7.79469
 20
-15.87782
 30
0.0
 10
-7.79469
 20
-15.88368
 30
0.0
 10
-7.79469
 20
-15.88368
 30
0.0
 10
-7.79469
 20
-15.88946
 30
0.0
 10
-7.79469
 20
-15.89362
 30
0.0
 10
-7.79469
 20
-15.89616
 30
0.0
 10
-7.79469
 20
-15.89616
 30
0.0
 10
-7.79469
 20
-15.90011
 30
0.0
 10
-7.79391
 20
-15.90456
 30
0.0
 10
-7.79222
 20
-15.90943
 30
0.0
 10
-7.79222
 20
-15.90943
 30
0.0
 10
-7.7906
 20
-15.91437
 30
0.0
 10
-7.78799
 20
-15.91931
 30
0.0
 10
-7.78439
 20
-15.92424
 30
0.0
 10
-7.78439
 20
-15.92424
 30
0.0
 10
-7.78079
 20
-15.92925
 30
0.0
 10
-7.77621
 20
-15.93384
 30
0.0
 10
-7.77049
 20
-15.93807
 30
0.0
 10
-7.77049
 20
-15.93807
 30
0.0
 10
-7.7647
 20
-15.94231
 30
0.0
 10
-7.75779
 20
-15.94569
 30
0.0
 10
-7.74975
 20
-15.9483
 30
0.0
 10
-7.74975
 20
-15.9483
 30
0.0
 10
-7.74163
 20
-15.95091
 30
0.0
 10
-7.73218
 20
-15.95233
 30
0.0
 10
-7.72145
 20
-15.95247
 30
0.0
 10
-7.72145
 20
-15.95247
 30
0.0
 10
-7.71059
 20
-15.95247
 30
0.0
 10
-7.70078
 20
-15.95099
 30
0.0
 10
-7.69203
 20
-15.94802
 30
0.0
 10
-7.69203
 20
-15.94802
 30
0.0
 10
-7.68321
 20
-15.94499
 30
0.0
 10
-7.67552
 20
-15.94083
 30
0.0
 10
-7.66882
 20
-15.93553
 30
0.0
 10
-7.66882
 20
-15.93553
 30
0.0
 10
-7.66219
 20
-15.93024
 30
0.0
 10
-7.65661
 20
-15.92417
 30
0.0
 10
-7.6521
 20
-15.91726
 30
0.0
 10
-7.6521
 20
-15.91726
 30
0.0
 10
-7.64758
 20
-15.91042
 30
0.0
 10
-7.6442
 20
-15.90315
 30
0.0
 10
-7.64194
 20
-15.89539
 30
0.0
 10
-7.64194
 20
-15.89539
 30
0.0
 10
-7.63961
 20
-15.8877
 30
0.0
 10
-7.63848
 20
-15.87987
 30
0.0
 10
-7.63848
 20
-15.87203
 30
0.0
  0
SPLINE
  5
82
330
1F
100
AcDbEntity
  8
Layer 1
 62
    30
370
     9
100
AcDbSpline
210
0.0
220
0.0
230
1.0
 70
    27
 71
     3
 72
    12
 73
     8
 74
     0
 42
0.0000000001
 43
0.0000000001
 40
0.0
 40
0.0
 40
0.0
 40
0.0
 40
0.5
 40
0.5
 40
0.5
 40
0.5
 40
1.0
 40
1.0
 40
1.0
 40
1.0
 10
-7.96402
 20
-15.64682
 30
0.0
 10
-7.96402
 20
-15.64682
 30
0.0
 10
-7.96402
 20
-15.95289
 30
0.0
 10
-7.96402
 20
-15.95289
 30
0.0
 10
-7.96402
 20
-15.95289
 30
0.0
 10
-7.96402
 20
-15.95289
 30
0.0
 10
-7.96402
 20
-15.64682
 30
0.0
 10
-7.96402
 20
-15.64682
 30
0.0
  0
SPLINE
  5
83
330
1F
100
AcDbEntity
  8
Layer 1
 62
    30
370
     9
100
AcDbSpline
210
0.0
220
0.0
230
1.0
 70
    11
 71
     3
 72
    68
 73
    64
 74
     0
 42
0.0000000001
 43
0.0000000001
 40
0.0
 40
0.0
 40
0.0
 40
0.0
 40
0.0625
 40
0.0625
 40
0.0625
 40
0.0625
 40
0.125
 40
0.125
 40
0.125
 40
0.125
 40
0.1875
 40
0.1875
 40
0.1875
 40
0.1875
 40
0.25
 40
0.25
 40
0.25
 40
0.25
 40
0.3125
 40
0.3125
 40
0.3125
 40
0.3125
 40
0.375
 40
0.375
 40
0.375
 40
0.375
 40
0.4375
 40
0.4375
 40
0.4375
 40
0.4375
 40
0.5
 40
0.5
 40
0.5
 40
0.5
 40
0.5625
 40
0.5625
 40
0.5625
 40
0.5625
 40
0.625
 40
0.625
 40
0.625
 40
0.625
 40
0.6875
 40
0.6875
 40
0.6875
 40
0.6875
 40
0.75
 40
0.75
 40
0.75
 40
0.75
 40
0.8125
 40
0.8125
 40
0.8125
 40
0.8125
 40
0.875
 40
0.875
 40
0.875
 40
0.875
 40
0.9375
 40
0.9375
 40
0.9375
 40
0.9375
 40
1.0
 40
1.0
 40
1.0
 40
1.0
 10
-8.05419
 20
-15.73445
 30
0.0
 10
-8.04184
 20
-15.73438
 30
0.0
 10
-8.03027
 20
-15.73607
 30
0.0
 10
-8.01947
 20
-15.7396
 30
0.0
 10
-8.01947
 20
-15.7396
 30
0.0
 10
-8.00868
 20
-15.74313
 30
0.0
 10
-7.99915
 20
-15.74906
 30
0.0
 10
-7.9909
 20
-15.75731
 30
0.0
 10
-7.9909
 20
-15.75731
 30
0.0
 10
-7.98264
 20
-15.76557
 30
0.0
 10
-7.97622
 20
-15.77678
 30
0.0
 10
-7.97157
 20
-15.7909
 30
0.0
 10
-7.97157
 20
-15.7909
 30
0.0
 10
-7.96691
 20
-15.80501
 30
0.0
 10
-7.96451
 20
-15.82257
 30
0.0
 10
-7.96444
 20
-15.84367
 30
0.0
 10
-7.96444
 20
-15.84367
 30
0.0
 10
-7.96451
 20
-15.86477
 30
0.0
 10
-7.96691
 20
-15.88233
 30
0.0
 10
-7.97157
 20
-15.89645
 30
0.0
 10
-7.97157
 20
-15.89645
 30
0.0
 10
-7.97622
 20
-15.91056
 30
0.0
 10
-7.98264
 20
-15.92178
 30
0.0
 10
-7.9909
 20
-15.93003
 30
0.0
 10
-7.9909
 20
-15.93003
 30
0.0
 10
-7.99915
 20
-15.93829
 30
0.0
 10
-8.00868
 20
-15.94421
 30
0.0
 10
-8.01947
 20
-15.94774
 30
0.0
 10
-8.01947
 20
-15.94774
 30
0.0
 10
-8.03027
 20
-15.95127
 30
0.0
 10
-8.04184
 20
-15.95296
 30
0.0
 10
-8.05419
 20
-15.95289
 30
0.0
 10
-8.05419
 20
-15.95289
 30
0.0
 10
-8.06653
 20
-15.95296
 30
0.0
 10
-8.07811
 20
-15.95127
 30
0.0
 10
-8.08883
 20
-15.94774
 30
0.0
 10
-8.08883
 20
-15.94774
 30
0.0
 10
-8.09963
 20
-15.94421
 30
0.0
 10
-8.10908
 20
-15.93829
 30
0.0
 10
-8.11726
 20
-15.93003
 30
0.0
 10
-8.11726
 20
-15.93003
 30
0.0
 10
-8.12545
 20
-15.92178
 30
0.0
 10
-8.13187
 20
-15.91056
 30
0.0
 10
-8.13645
 20
-15.89645
 30
0.0
 10
-8.13645
 20
-15.89645
 30
0.0
 10
-8.14111
 20
-15.88233
 30
0.0
 10
-8.14344
 20
-15.86477
 30
0.0
 10
-8.14351
 20
-15.84367
 30
0.0
 10
-8.14351
 20
-15.84367
 30
0.0
 10
-8.14344
 20
-15.82257
 30
0.0
 10
-8.14111
 20
-15.80501
 30
0.0
 10
-8.13645
 20
-15.7909
 30
0.0
 10
-8.13645
 20
-15.7909
 30
0.0
 10
-8.13187
 20
-15.77678
 30
0.0
 10
-8.12545
 20
-15.76557
 30
0.0
 10
-8.11726
 20
-15.75731
 30
0.0
 10
-8.11726
 20
-15.75731
 30
0.0
 10
-8.10908
 20
-15.74906
 30
0.0
 10
-8.09963
 20
-15.74313
 30
0.0
 10
-8.08883
 20
-15.7396
 30
0.0
 10
-8.08883
 20
-15.7396
 30
0.0
 10
-8.07811
 20
-15.73607
 30
0.0
 10
-8.06653
 20
-15.73438
 30
0.0
 10
-8.05419
 20
-15.73445
 30
0.0
  0
SPLINE
  5
84
330
1F
100
AcDbEntity
  8
Layer 1
 62
    30
370
     9
100
AcDbSpline
210
0.0
220
0.0
230
1.0
 70
    27
 71
     3
 72
    12
 73
     8
 74
     0
 42
0.0000000001
 43
0.0000000001
 40
0.0
 40
0.0
 40
0.0
 40
0.0
 40
0.5
 40
0.5
 40
0.5
 40
0.5
 40
1.0
 40
1.0
 40
1.0
 40
1.0
 10
-8.32385
 20
-15.95289
 30
0.0
 10
-8.32385
 20
-15.95289
 30
0.0
 10
-8.32385
 20
-15.73572
 30
0.0
 10
-8.32385
 20
-15.73572
 30
0.0
 10
-8.32385
 20
-15.73572
 30
0.0
 10
-8.32385
 20
-15.73572
 30
0.0
 10
-8.32385
 20
-15.95289
 30
0.0
 10
-8.32385
 20
-15.95289
 30
0.0
  0
SPLINE
  5
85
330
1F
100
AcDbEntity
  8
Layer 1
 62
    30
370
     9
100
AcDbSpline
210
0.0
220
0.0
230
1.0
 70
     8
 71
     3
 72
    12
 73
     8
 74
     0
 42
0.0000000001
 43
0.0000000001
 40
0.0
 40
0.0
 40
0.0
 40
0.0
 40
0.5
 40
0.5
 40
0.5
 40
0.5
 40
1.0
 40
1.0
 40
1.0
 40
1.0
 10
-8.32385
 20
-15.84198
 30
0.0
 10
-8.32468
 20
-15.80302
 30
0.0
 10
-8.29902
 20
-15.75982
 30
0.0
 10
-8.26473
 20
-15.74193
 30
0.0
 10
-8.26473
 20
-15.74193
 30
0.0
 10
-8.25675
 20
-15.73777
 30
0.0
 10
-8.24885
 20
-15.73572
 30
0.0
 10
-8.24088
 20
-15.73572
 30
0.0
  0
SPLINE
  5
86
330
1F
100
AcDbEntity
  8
Layer 1
 62
    30
370
     9
100
AcDbSpline
210
0.0
220
0.0
230
1.0
 70
    27
 71
     3
 72
    12
 73
     8
 74
     0
 42
0.0000000001
 43
0.0000000001
 40
0.0
 40
0.0
 40
0.0
 40
0.0
 40
0.5
 40
0.5
 40
0.5
 40
0.5
 40
1.0
 40
1.0
 40
1.0
 40
1.0
 10
-8.6786
 20
-15.85679
 30
0.0
 10
-8.6786
 20
-15.85679
 30
0.0
 10
-8.51266
 20
-15.85679
 30
0.0
 10
-8.51266
 20
-15.85679
 30
0.0
 10
-8.51266
 20
-15.85679
 30
0.0
 10
-8.51266
 20
-15.85679
 30
0.0
 10
-8.6786
 20
-15.85679
 30
0.0
 10
-8.6786
 20
-15.85679
 30
0.0
  0
SPLINE
  5
87
330
1F
100
AcDbEntity
  8
Layer 1
 62
    30
370
     9
100
AcDbSpline
210
0.0
220
0.0
230
1.0
 70
     8
 71
     3
 72
    12
 73
     8
 74
     0
 42
0.0000000001
 43
0.0000000001
 40
0.0
 40
0.0
 40
0.0
 40
0.0
 40
0.5
 40
0.5
 40
0.5
 40
0.5
 40
1.0
 40
1.0
 40
1.0
 40
1.0
 10
-8.7167
 20
-15.95289
 30
0.0
 10
-8.7167
 20
-15.95289
 30
0.0
 10
-8.59563
 20
-15.64767
 30
0.0
 10
-8.59563
 20
-15.64767
 30
0.0
 10
-8.59563
 20
-15.64767
 30
0.0
 10
-8.59563
 20
-15.64767
 30
0.0
 10
-8.47413
 20
-15.95289
 30
0.0
 10
-8.47413
 20
-15.95289
 30
0.0
  0
ELLIPSE
  5
88
330
1F
100
AcDbEntity
  8
Layer 1
370
     9
100
AcDbEllipse
 10
-8.6625
 20
-12.3
 30
0.0
 11
0.0
 21
0.15
 31
0.0
210
0.0
220
0.0
230
1.0
 40
1.0
 41
0.0
 42
6.283185307179586
  0
ELLIPSE
  5
89
330
1F
100
AcDbEntity
  8
Layer 1
370
     9
100
AcDbEllipse
 10
-5.8625
 20
-12.3
 30
0.0
 11
0.0
 21
0.15
 31
0.0
210
0.0
220
0.0
230
1.0
 40
1.0
 41
0.0
 42
6.283185307179586
  0
ELLIPSE
  5
8A
330
1F
100
AcDbEntity
  8
Layer 1
370
     9
100
AcDbEllipse
 10
-10.1875
 20
-17.4
 30
0.0
 11
0.0
 21
0.15
 31
0.0
210
0.0
220
0.0
230
1.0
 40
1.0
 41
0.0
 42
6.283185307179586
  0
ENDSEC
  0
SECTION
  2
OBJECTS
  0
DICTIONARY
  5
C
330
0
100
AcDbDictionary
281
     1
  3
ACAD_GROUP
350
D
  3
ACAD_LAYOUT
350
1A
  3
ACAD_MLEADERSTYLE
350
8C
  3
ACAD_MLINESTYLE
350
17
  3
ACAD_PLOTSETTINGS
350
19
  3
ACAD_PLOTSTYLENAME
350
E
  3
ACAD_SCALELIST
350
3B
  3
ACAD_TABLESTYLE
350
8B
  3
ACAD_VISUALSTYLE
350
2A
  0
DICTIONARY
  5
D
102
{ACAD_REACTORS
330
C
102
}
330
C
100
AcDbDictionary
281
     1
  0
DICTIONARY
  5
1A
102
{ACAD_REACTORS
330
C
102
}
330
C
100
AcDbDictionary
281
     1
  3
Layout1
350
1E
  3
Layout2
350
26
  3
Model
350
22
  0
DICTIONARY
  5
8C
102
{ACAD_REACTORS
330
C
102
}
330
C
100
AcDbDictionary
281
     1
  0
DICTIONARY
  5
17
102
{ACAD_REACTORS
330
C
102
}
330
C
100
AcDbDictionary
281
     1
  3
Standard
350
18
  0
DICTIONARY
  5
19
102
{ACAD_REACTORS
330
C
102
}
330
C
100
AcDbDictionary
281
     1
  0
ACDBDICTIONARYWDFLT
  5
E
102
{ACAD_REACTORS
330
C
102
}
330
C
100
AcDbDictionary
281
     1
  3
Normal
350
F
100
AcDbDictionaryWithDefault
340
F
  0
DICTIONARY
  5
3B
102
{ACAD_REACTORS
330
C
102
}
330
C
100
AcDbDictionary
281
     1
  3
A0
350
3C
  3
A1
350
3D
  3
A2
350
3E
  3
A3
350
3F
  3
A4
350
40
  3
A5
350
41
  3
A6
350
42
  3
A7
350
43
  3
A8
350
44
  3
A9
350
45
  3
B0
350
46
  3
B1
350
47
  3
B2
350
48
  3
B3
350
49
  3
B4
350
4A
  3
B5
350
4B
  3
B6
350
4C
  3
B7
350
4D
  3
B8
350
4E
  3
B9
350
4F
  3
C0
350
50
  3
C1
350
51
  3
C2
350
52
  3
C3
350
53
  3
C4
350
54
  3
C5
350
55
  3
C6
350
56
  3
C7
350
57
  3
C8
350
58
  3
C9
350
59
  3
D0
350
5A
  3
D1
350
5B
  3
D2
350
5C
  0
DICTIONARY
  5
8B
102
{ACAD_REACTORS
330
C
102
}
330
C
100
AcDbDictionary
281
     1
  0
DICTIONARY
  5
2A
102
{ACAD_REACTORS
330
C
102
}
330
C
100
AcDbDictionary
281
     1
  3
2dWireframe
350
2F
  3
3D Hidden
350
31
  3
3dWireframe
350
30
  3
Basic
350
32
  3
Brighten
350
36
  3
ColorChange
350
3A
  3
Conceptual
350
34
  3
Dim
350
35
  3
Facepattern
350
39
  3
Flat
350
2B
  3
FlatWithEdges
350
2C
  3
Gouraud
350
2D
  3
GouraudWithEdges
350
2E
  3
Linepattern
350
38
  3
Realistic
350
33
  3
Thicken
350
37
  0
LAYOUT
  5
1E
102
{ACAD_REACTORS
330
1A
102
}
330
1A
100
AcDbPlotSettings
  1

  2
none_device
  4

  6

 40
0.0
 41
0.0
 42
0.0
 43
0.0
 44
0.0
 45
0.0
 46
0.0
 47
0.0
 48
0.0
 49
0.0
140
0.0
141
0.0
142
1.0
143
1.0
 70
   688
 72
     0
 73
     0
 74
     5
  7

 75
    16
 76
     0
 77
     2
 78
   300
147
1.0
148
0.0
149
0.0
100
AcDbLayout
  1
Layout1
 70
     1
 71
     1
 10
0.0
 20
0.0
 11
12.0
 21
9.0
 12
0.0
 22
0.0
 32
0.0
 14
1.000000000000000E+20
 24
1.000000000000000E+20
 34
1.000000000000000E+20
 15
-1.000000000000000E+20
 25
-1.000000000000000E+20
 35
-1.000000000000000E+20
146
0.0
 13
0.0
 23
0.0
 33
0.0
 16
1.0
 26
0.0
 36
0.0
 17
0.0
 27
1.0
 37
0.0
 76
     0
330
1B
  0
LAYOUT
  5
26
102
{ACAD_REACTORS
330
1A
102
}
330
1A
100
AcDbPlotSettings
  1

  2
none_device
  4

  6

 40
0.0
 41
0.0
 42
0.0
 43
0.0
 44
0.0
 45
0.0
 46
0.0
 47
0.0
 48
0.0
 49
0.0
140
0.0
141
0.0
142
1.0
143
1.0
 70
   688
 72
     0
 73
     0
 74
     5
  7

 75
    16
 76
     0
 77
     2
 78
   300
147
1.0
148
0.0
149
0.0
100
AcDbLayout
  1
Layout2
 70
     1
 71
     2
 10
0.0
 20
0.0
 11
0.0
 21
0.0
 12
0.0
 22
0.0
 32
0.0
 14
0.0
 24
0.0
 34
0.0
 15
0.0
 25
0.0
 35
0.0
146
0.0
 13
0.0
 23
0.0
 33
0.0
 16
1.0
 26
0.0
 36
0.0
 17
0.0
 27
1.0
 37
0.0
 76
     0
330
23
  0
LAYOUT
  5
22
102
{ACAD_REACTORS
330
1A
102
}
330
1A
100
AcDbPlotSettings
  1

  2
none_device
  4

  6

 40
0.0
 41
0.0
 42
0.0
 43
0.0
 44
0.0
 45
0.0
 46
0.0
 47
0.0
 48
0.0
 49
0.0
140
0.0
141
0.0
142
1.0
143
1.0
 70
  1712
 72
     0
 73
     0
 74
     0
  7

 75
     0
 76
     0
 77
     2
 78
   300
147
1.0
148
0.0
149
0.0
100
AcDbLayout
  1
Model
 70
     1
 71
     0
 10
0.0
 20
0.0
 11
12.0
 21
9.0
 12
0.0
 22
0.0
 32
0.0
 14
-15.95381
 24
-19.55381
 34
0.0
 15
-5.04619
 25
-10.14619
 35
0.0
146
0.0
 13
0.0
 23
0.0
 33
0.0
 16
1.0
 26
0.0
 36
0.0
 17
0.0
 27
1.0
 37
0.0
 76
     0
330
1F
331
29
  0
MLINESTYLE
  5
18
102
{ACAD_REACTORS
330
17
102
}
330
17
100
AcDbMlineStyle
  2
Standard
 70
     0
  3

 62
   256
 51
90.0
 52
90.0
 71
     2
 49
0.5
 62
   256
  6
BYLAYER
 49
-0.5
 62
   256
  6
BYLAYER
  0
ACDBPLACEHOLDER
  5
F
102
{ACAD_REACTORS
330
E
102
}
330
E
  0
SCALE
  5
3C
102
{ACAD_REACTORS
330
3B
102
}
330
3B
100
AcDbScale
 70
     0
300
1:1
140
1.0
141
1.0
290
     1
  0
SCALE
  5
3D
102
{ACAD_REACTORS
330
3B
102
}
330
3B
100
AcDbScale
 70
     0
300
1:2
140
1.0
141
2.0
290
     0
  0
SCALE
  5
3E
102
{ACAD_REACTORS
330
3B
102
}
330
3B
100
AcDbScale
 70
     0
300
1:4
140
1.0
141
4.0
290
     0
  0
SCALE
  5
3F
102
{ACAD_REACTORS
330
3B
102
}
330
3B
100
AcDbScale
 70
     0
300
1:5
140
1.0
141
5.0
290
     0
  0
SCALE
  5
40
102
{ACAD_REACTORS
330
3B
102
}
330
3B
100
AcDbScale
 70
     0
300
1:8
140
1.0
141
8.0
290
     0
  0
SCALE
  5
41
102
{ACAD_REACTORS
330
3B
102
}
330
3B
100
AcDbScale
 70
     0
300
1:10
140
1.0
141
10.0
290
     0
  0
SCALE
  5
42
102
{ACAD_REACTORS
330
3B
102
}
330
3B
100
AcDbScale
 70
     0
300
1:16
140
1.0
141
16.0
290
     0
  0
SCALE
  5
43
102
{ACAD_REACTORS
330
3B
102
}
330
3B
100
AcDbScale
 70
     0
300
1:20
140
1.0
141
20.0
290
     0
  0
SCALE
  5
44
102
{ACAD_REACTORS
330
3B
102
}
330
3B
100
AcDbScale
 70
     0
300
1:30
140
1.0
141
30.0
290
     0
  0
SCALE
  5
45
102
{ACAD_REACTORS
330
3B
102
}
330
3B
100
AcDbScale
 70
     0
300
1:40
140
1.0
141
40.0
290
     0
  0
SCALE
  5
46
102
{ACAD_REACTORS
330
3B
102
}
330
3B
100
AcDbScale
 70
     0
300
1:50
140
1.0
141
50.0
290
     0
  0
SCALE
  5
47
102
{ACAD_REACTORS
330
3B
102
}
330
3B
100
AcDbScale
 70
     0
300
1:100
140
1.0
141
100.0
290
     0
  0
SCALE
  5
48
102
{ACAD_REACTORS
330
3B
102
}
330
3B
100
AcDbScale
 70
     0
300
2:1
140
2.0
141
1.0
290
     0
  0
SCALE
  5
49
102
{ACAD_REACTORS
330
3B
102
}
330
3B
100
AcDbScale
 70
     0
300
4:1
140
4.0
141
1.0
290
     0
  0
SCALE
  5
4A
102
{ACAD_REACTORS
330
3B
102
}
330
3B
100
AcDbScale
 70
     0
300
8:1
140
8.0
141
1.0
290
     0
  0
SCALE
  5
4B
102
{ACAD_REACTORS
330
3B
102
}
330
3B
100
AcDbScale
 70
     0
300
10:1
140
10.0
141
1.0
290
     0
  0
SCALE
  5
4C
102
{ACAD_REACTORS
330
3B
102
}
330
3B
100
AcDbScale
 70
     0
300
100:1
140
100.0
141
1.0
290
     0
  0
SCALE
  5
4D
102
{ACAD_REACTORS
330
3B
102
}
330
3B
100
AcDbScale
 70
     0
300
1/128" = 1'-0"
140
0.0078125
141
12.0
290
     0
  0
SCALE
  5
4E
102
{ACAD_REACTORS
330
3B
102
}
330
3B
100
AcDbScale
 70
     0
300
1/64" = 1'-0"
140
0.015625
141
12.0
290
     0
  0
SCALE
  5
4F
102
{ACAD_REACTORS
330
3B
102
}
330
3B
100
AcDbScale
 70
     0
300
1/32" = 1'-0"
140
0.03125
141
12.0
290
     0
  0
SCALE
  5
50
102
{ACAD_REACTORS
330
3B
102
}
330
3B
100
AcDbScale
 70
     0
300
1/16" = 1'-0"
140
0.0625
141
12.0
290
     0
  0
SCALE
  5
51
102
{ACAD_REACTORS
330
3B
102
}
330
3B
100
AcDbScale
 70
     0
300
3/32" = 1'-0"
140
0.09375
141
12.0
290
     0
  0
SCALE
  5
52
102
{ACAD_REACTORS
330
3B
102
}
330
3B
100
AcDbScale
 70
     0
300
1/8" = 1'-0"
140
0.125
141
12.0
290
     0
  0
SCALE
  5
53
102
{ACAD_REACTORS
330
3B
102
}
330
3B
100
AcDbScale
 70
     0
300
3/16" = 1'-0"
140
0.1875
141
12.0
290
     0
  0
SCALE
  5
54
102
{ACAD_REACTORS
330
3B
102
}
330
3B
100
AcDbScale
 70
     0
300
1/4" = 1'-0"
140
0.25
141
12.0
290
     0
  0
SCALE
  5
55
102
{ACAD_REACTORS
330
3B
102
}
330
3B
100
AcDbScale
 70
     0
300
3/8" = 1'-0"
140
0.375
141
12.0
290
     0
  0
SCALE
  5
56
102
{ACAD_REACTORS
330
3B
102
}
330
3B
100
AcDbScale
 70
     0
300
1/2" = 1'-0"
140
0.5
141
12.0
290
     0
  0
SCALE
  5
57
102
{ACAD_REACTORS
330
3B
102
}
330
3B
100
AcDbScale
 70
     0
300
3/4" = 1'-0"
140
0.75
141
12.0
290
     0
  0
SCALE
  5
58
102
{ACAD_REACTORS
330
3B
102
}
330
3B
100
AcDbScale
 70
     0
300
1" = 1'-0"
140
1.0
141
12.0
290
     0
  0
SCALE
  5
59
102
{ACAD_REACTORS
330
3B
102
}
330
3B
100
AcDbScale
 70
     0
300
1-1/2" = 1'-0"
140
1.5
141
12.0
290
     0
  0
SCALE
  5
5A
102
{ACAD_REACTORS
330
3B
102
}
330
3B
100
AcDbScale
 70
     0
300
3" = 1'-0"
140
3.0
141
12.0
290
     0
  0
SCALE
  5
5B
102
{ACAD_REACTORS
330
3B
102
}
330
3B
100
AcDbScale
 70
     0
300
6" = 1'-0"
140
6.0
141
12.0
290
     0
  0
SCALE
  5
5C
102
{ACAD_REACTORS
330
3B
102
}
330
3B
100
AcDbScale
 70
     0
300
1'-0" = 1'-0"
140
12.0
141
12.0
290
     0
  0
VISUALSTYLE
  5
2F
102
{ACAD_REACTORS
330
2A
102
}
330
2A
100
AcDbVisualStyle
  2
2dWireframe
 70
     4
 71
     0
 72
     2
 73
     0
 90
        0
 40
-0.6
 41
-30.0
 62
     5
 63
     7
421
 16777215
 74
     1
 91
        4
 64
     7
 65
   257
 75
     1
175
     1
 42
1.0
 92
        0
 66
   257
 43
1.0
 76
     1
 77
     6
 78
     2
 67
     7
 79
     5
170
     0
171
     0
290
     0
174
     0
 93
        1
 44
0.0
173
     0
291
     0
 45
0.0
  0
VISUALSTYLE
  5
31
102
{ACAD_REACTORS
330
2A
102
}
330
2A
100
AcDbVisualStyle
  2
3D Hidden
 70
     6
 71
     1
 72
     2
 73
     2
 90
        0
 40
-0.6
 41
-30.0
 62
     5
 63
     7
421
 16777215
 74
     2
 91
        2
 64
     7
 65
   257
 75
     2
175
     1
 42
40.0
 92
        0
 66
   257
 43
1.0
 76
     1
 77
     6
 78
     2
 67
     7
 79
     3
170
     0
171
     0
290
     0
174
     0
 93
        1
 44
0.0
173
     0
291
     0
 45
0.0
  0
VISUALSTYLE
  5
30
102
{ACAD_REACTORS
330
2A
102
}
330
2A
100
AcDbVisualStyle
  2
3dWireframe
 70
     5
 71
     0
 72
     2
 73
     0
 90
        0
 40
-0.6
 41
-30.0
 62
     5
 63
     7
421
 16777215
 74
     1
 91
        4
 64
     7
 65
   257
 75
     1
175
     1
 42
1.0
 92
        0
 66
   257
 43
1.0
 76
     1
 77
     6
 78
     2
 67
     7
 79
     5
170
     0
171
     0
290
     0
174
     0
 93
        1
 44
0.0
173
     0
291
     0
 45
0.0
  0
VISUALSTYLE
  5
32
102
{ACAD_REACTORS
330
2A
102
}
330
2A
100
AcDbVisualStyle
  2
Basic
 70
     7
 71
     1
 72
     0
 73
     1
 90
        0
 40
-0.6
 41
-30.0
 62
     5
 63
     7
421
 16777215
 74
     0
 91
        4
 64
     7
 65
   257
 75
     1
175
     1
 42
1.0
 92
        8
 66
     7
 43
1.0
 76
     1
 77
     6
 78
     2
 67
     7
 79
     5
170
     0
171
     0
290
     0
174
     0
 93
        1
 44
0.0
173
     0
291
     1
 45
0.0
  0
VISUALSTYLE
  5
36
102
{ACAD_REACTORS
330
2A
102
}
330
2A
100
AcDbVisualStyle
  2
Brighten
 70
    12
 71
     2
 72
     2
 73
     0
 90
        0
 40
-0.6
 41
-30.0
 62
     5
 63
     7
421
 16777215
 74
     1
 91
        4
 64
     7
 65
   257
 75
     1
175
     1
 42
1.0
 92
        8
 66
     7
 43
1.0
 76
     1
 77
     6
 78
     2
 67
     7
 79
     5
170
     0
171
     0
290
     0
174
     0
 93
        1
 44
50.0
173
     0
291
     1
 45
0.0
  0
VISUALSTYLE
  5
3A
102
{ACAD_REACTORS
330
2A
102
}
330
2A
100
AcDbVisualStyle
  2
ColorChange
 70
    16
 71
     2
 72
     2
 73
     3
 90
        0
 40
-0.6
 41
-30.0
 62
     5
 63
     8
421
  8421504
 74
     1
 91
        4
 64
     7
 65
   257
 75
     1
175
     1
 42
1.0
 92
        8
 66
     8
424
  8421504
 43
1.0
 76
     1
 77
     6
 78
     2
 67
     7
 79
     5
170
     0
171
     0
290
     0
174
     0
 93
        1
 44
0.0
173
     0
291
     1
 45
0.0
  0
VISUALSTYLE
  5
34
102
{ACAD_REACTORS
330
2A
102
}
330
2A
100
AcDbVisualStyle
  2
Conceptual
 70
     9
 71
     3
 72
     2
 73
     0
 90
        0
 40
-0.6
 41
-30.0
 62
     5
 63
     7
421
 16777215
 74
     2
 91
        2
 64
     7
 65
   257
 75
     1
175
     1
 42
40.0
 92
        8
 66
     7
 43
1.0
 76
     1
 77
     6
 78
     2
 67
     7
 79
     3
170
     0
171
     0
290
     0
174
     0
 93
        1
 44
0.0
173
     0
291
     0
 45
0.0
  0
VISUALSTYLE
  5
35
102
{ACAD_REACTORS
330
2A
102
}
330
2A
100
AcDbVisualStyle
  2
Dim
 70
    11
 71
     2
 72
     2
 73
     0
 90
        0
 40
-0.6
 41
-30.0
 62
     5
 63
     7
421
 16777215
 74
     1
 91
        4
 64
     7
 65
   257
 75
     1
175
     1
 42
1.0
 92
        8
 66
     7
 43
1.0
 76
     1
 77
     6
 78
     2
 67
     7
 79
     5
170
     0
171
     0
290
     0
174
     0
 93
        1
 44
-50.0
173
     0
291
     1
 45
0.0
  0
VISUALSTYLE
  5
39
102
{ACAD_REACTORS
330
2A
102
}
330
2A
100
AcDbVisualStyle
  2
Facepattern
 70
    15
 71
     2
 72
     2
 73
     0
 90
        0
 40
-0.6
 41
-30.0
 62
     5
 63
     7
421
 16777215
 74
     1
 91
        4
 64
     7
 65
   257
 75
     1
175
     1
 42
1.0
 92
        8
 66
     7
 43
1.0
 76
     1
 77
     6
 78
     2
 67
     7
 79
     5
170
     0
171
     0
290
     0
174
     0
 93
        1
 44
0.0
173
     0
291
     1
 45
0.0
  0
VISUALSTYLE
  5
2B
102
{ACAD_REACTORS
330
2A
102
}
330
2A
100
AcDbVisualStyle
  2
Flat
 70
     0
 71
     2
 72
     1
 73
     1
 90
        2
 40
-0.6
 41
30.0
 62
     5
 63
     7
421
 16777215
 74
     0
 91
        4
 64
     7
 65
   257
 75
     1
175
     1
 42
1.0
 92
        8
 66
     7
 43
1.0
 76
     1
 77
     6
 78
     2
 67
     7
 79
     5
170
     0
171
     0
290
     0
174
     0
 93
       13
 44
0.0
173
     0
291
     1
 45
0.0
  0
VISUALSTYLE
  5
2C
102
{ACAD_REACTORS
330
2A
102
}
330
2A
100
AcDbVisualStyle
  2
FlatWithEdges
 70
     1
 71
     2
 72
     1
 73
     1
 90
        2
 40
-0.6
 41
30.0
 62
     5
 63
     7
421
 16777215
 74
     1
 91
        4
 64
     7
 65
   257
 75
     1
175
     1
 42
1.0
 92
        0
 66
   257
 43
1.0
 76
     1
 77
     6
 78
     2
 67
     7
 79
     5
170
     0
171
     0
290
     0
174
     0
 93
       13
 44
0.0
173
     0
291
     1
 45
0.0
  0
VISUALSTYLE
  5
2D
102
{ACAD_REACTORS
330
2A
102
}
330
2A
100
AcDbVisualStyle
  2
Gouraud
 70
     2
 71
     2
 72
     2
 73
     1
 90
        2
 40
-0.6
 41
30.0
 62
     5
 63
     7
421
 16777215
 74
     0
 91
        4
 64
     7
 65
   257
 75
     1
175
     1
 42
1.0
 92
        0
 66
     7
 43
1.0
 76
     1
 77
     6
 78
     2
 67
     7
 79
     5
170
     0
171
     0
290
     0
174
     0
 93
       13
 44
0.0
173
     0
291
     1
 45
0.0
  0
VISUALSTYLE
  5
2E
102
{ACAD_REACTORS
330
2A
102
}
330
2A
100
AcDbVisualStyle
  2
GouraudWithEdges
 70
     3
 71
     2
 72
     2
 73
     1
 90
        2
 40
-0.6
 41
30.0
 62
     5
 63
     7
421
 16777215
 74
     1
 91
        4
 64
     7
 65
   257
 75
     1
175
     1
 42
1.0
 92
        0
 66
   257
 43
1.0
 76
     1
 77
     6
 78
     2
 67
     7
 79
     5
170
     0
171
     0
290
     0
174
     0
 93
       13
 44
0.0
173
     0
291
     1
 45
0.0
  0
VISUALSTYLE
  5
38
102
{ACAD_REACTORS
330
2A
102
}
330
2A
100
AcDbVisualStyle
  2
Linepattern
 70
    14
 71
     2
 72
     2
 73
     0
 90
        0
 40
-0.6
 41
-30.0
 62
     5
 63
     7
421
 16777215
 74
     1
 91
        4
 64
     7
 65
   257
 75
     7
175
     7
 42
1.0
 92
        8
 66
     7
 43
1.0
 76
     1
 77
     6
 78
     2
 67
     7
 79
     5
170
     0
171
     0
290
     0
174
     0
 93
        1
 44
0.0
173
     0
291
     1
 45
0.0
  0
VISUALSTYLE
  5
33
102
{ACAD_REACTORS
330
2A
102
}
330
2A
100
AcDbVisualStyle
  2
Realistic
 70
     8
 71
     2
 72
     2
 73
     0
 90
        0
 40
-0.6
 41
-30.0
 62
     5
 63
     7
421
 16777215
 74
     1
 91
        0
 64
     7
 65
   257
 75
     1
175
     1
 42
1.0
 92
        8
 66
     8
424
  7895160
 43
1.0
 76
     1
 77
     6
 78
     2
 67
     7
 79
     5
170
     0
171
     0
290
     0
174
     0
 93
       13
 44
0.0
173
     0
291
     0
 45
0.0
  0
VISUALSTYLE
  5
37
102
{ACAD_REACTORS
330
2A
102
}
330
2A
100
AcDbVisualStyle
  2
Thicken
 70
    13
 71
     2
 72
     2
 73
     0
 90
        0
 40
-0.6
 41
-30.0
 62
     5
 63
     7
421
 16777215
 74
     1
 91
        4
 64
     7
 65
   257
 75
     1
175
     1
 42
1.0
 92
       12
 66
     7
 43
1.0
 76
     1
 77
     6
 78
     2
 67
     7
 79
     5
170
     0
171
     0
290
     0
174
     0
 93
        1
 44
0.0
173
     0
291
     1
 45
0.0
  0
ENDSEC
  0
EOF
